<?xml version="1.0" encoding="utf-8"?>
<!-- Generator: Adobe Illustrator 19.2.1, SVG Export Plug-In . SVG Version: 6.00 Build 0)  -->
<svg version="1.1" xmlns="http://www.w3.org/2000/svg" xmlns:xlink="http://www.w3.org/1999/xlink" x="0px" y="0px"
	 viewBox="0 0 406.4 544.2" style="enable-background:new 0 0 406.4 544.2;" xml:space="preserve">
<style type="text/css">
	.st0{display:none;}
	.st1{fill:#9B9B9E;stroke:#1D1D1B;stroke-miterlimit:10;}
	.st2{display:inline;fill:#9B9B9E;stroke:#1D1D1B;stroke-miterlimit:10;}
	.st3{display:none;fill:#FFFFFF;}
	.st4{fill:#FBFFF2;}
	.st5{fill:#FFFFFF;}
</style>
<g id="Lager_2" class="st0">
	<rect class="st1" width="406.4" height="544.2"/>
	<rect x="-0.1" y="-0.7" class="st2" width="406.4" height="544.2"/>
</g>
<g id="Byrå">
	<path id="Vit_bakgrundsram" class="st3" d="M372,277.6c0,61.5,0,123-0.1,184.5c0,0.4-0.8,1.1-1.3,1.1c-112.3,0-224.7,0-337,0
		c-0.5,0-1.3-0.7-1.3-1.1c-0.1-123-0.1-246,0-369c0-0.4,0.8-1.1,1.3-1.1c112.3,0,224.7,0,337,0c0.5,0,1.3,0.7,1.3,1.1
		C372,154.6,372,216.1,372,277.6z"/>
	<path id="Gör_om_till_vit_ram" class="st3" d="M31.4,460.8c1.9,0,0.9,2.2,1.7,3.7c0.9,1.8,1.9,2,3.5,2.9c3.2,1.9,2.8,0.2,3.9,4.6
		c0.8,3.4,1.3,7,1.9,10.5c1.2,7.1,0.1,22.8,11.8,18.7c5.4-1.9,4.6-9.2,5.1-13.9c0.5-4.2,0-16.3,3-19.2c4.3-4.1,3.7,3.8,5,5.6
		c1.8,2.6,6.4,3.3,9.3,2.4c4.6-1.3,1.8-5.3,5-8c3.4-2.8,13.2-0.6,17.5-0.5c13,0.2,26,0.5,39,0.1c12.6-0.4,25.1,0.6,37.6-0.1
		c13.3-0.7,26.7-1.1,40-1.3c26.2-0.5,52.3-0.7,78.4-1c6.5-0.1,13-0.2,19.4-0.2c3.3,0,5.9-0.7,8.1,2c1.3,1.6,1,4,2.8,5.3
		c2.8,1.9,10.3,0.8,12.3-1.6c2.1-2.5,3.9-9.5,6.6-3.5c2.3,5.2,1.6,13.7,2.3,19.3c0.6,5-0.4,11.4,5.2,13c5.7,1.6,8.1-1,8.9-6.1
		c1-6.2,1.7-12.4,2.8-18.6c0.3-2,0.4-6.6,2-8.1c1.5-1.3,3.1,0.1,4.4-0.7c3.5-2.1,1.8-9.9,1.8-13.6c0-13.2,0-26.4,0.2-39.6
		c0.2-25.8,2.3-51.7,2.1-77.5c-0.1-12.6-0.9-25.3-1.2-37.9c-0.3-13.7,1.7-27.5,1.2-41.2c-0.9-26.3,1.2-52.4,1.4-78.7
		c0.1-13.7-0.6-27.2,0-40.8c0.5-12.8,0.8-25.8,0.8-38.6c0-1.7,0.4-5.2-2-5.7c-2.2-0.5-0.7,4.3-0.6,5.5c0.6,6.2-0.4,12.3-0.6,18.5
		c-0.5,13.5,0,27-0.5,40.5c-0.4,13.1,0.6,26.1-0.1,39.1c-0.7,13.1-1.3,26.6-1.2,39.7c0.6,53.1,0.1,105.9-1,159
		c-0.3,13.1-0.5,26.2-0.8,39.3c-0.1,6.3-0.2,12.6-0.4,18.9c0,1.7,0.8,7.9-0.2,9.5c-1.2,1.8-3.9,1.5-6,1.5
		c-13.4,0.3-26.8-0.9-40.2-0.9c-13.4,0.1-26.8,0.2-40.2,0.1c-51.4-0.2-102.7,2.3-154.1,2.6c-26.2,0.2-52.4-1.4-78.6-0.9
		c-4.6,0.1-11.5,1.9-13.6-3.3c-1.9-4.9-0.9-12.7-1.1-17.9c-0.4-12.3,0.1-24.5,0-36.8c-0.4-53.4-2.9-107.2-1.5-160.7
		c0.7-26.1,0.6-52.2,0.7-78.3c0.1-12.8-0.1-25.7,0-38.5c0-6,0.2-12,0.5-18c0.1-3,0.3-6,0.4-9c0.1-1.7-0.6-8,0.7-9.4
		c2.4-2.8,13.7-0.2,17.6-0.2c6.8,0.1,13.5-0.1,20.3,0c12.4,0.1,24.8,0.4,37.2,0.4c26.5,0,53-0.8,79.5-0.8
		c25.2-0.1,50.5-0.8,75.7-0.5c12.6,0.1,25.2-0.2,37.9-0.2c13.3,0,26.9-1.2,40.2-0.4c6.2,0.4,12.4,0.8,18.6,0.8
		c3.5,0,7.1-0.1,10.6-0.2c2.7-0.1,8.3,0.8,10.6-0.2c11.2-5.1-9.1-22.4-12.8-26.3c-4.3-4.6-8.4-9.9-13.1-14.1
		c-4.6-4.1-9.1-2.8-14.9-2.4c-12.8,0.9-25.8,0.6-38.6,0.4c-27.1-0.4-54.2,0.7-81.3,0.9c-25.5,0.2-50.9,0-76.4,0.6
		c-12,0.3-24.4-0.2-36.3,0.8c-12.4,1.1-24.6,0.2-37-0.1c-4.9-0.1-11-1.7-15.2,0.8c-5.5,3.4-10.3,8.6-15.2,12.8
		c-4.7,4-9.3,8.5-14.2,12.2c-4.9,3.6-5.2,5.3-5.2,11.6c0,2.4-0.5,3.7,1.7,4.6c1.9,0.8,5.4-2.7,7.3-1.1c2.4,2.1,0.4,15.2,0.3,18.4
		c-0.2,12.8-0.8,25.7-0.8,38.5c0,26.2-0.6,52.4-0.6,78.6c0.1,51.6-0.2,103.2,0.5,154.7C31.6,408.8,31.4,434.8,31.4,460.8
		C31.7,460.8,31.4,449.6,31.4,460.8z"/>
	<path class="st3" d="M51.1,344.8c0,0.1,0,0.3,0,0.4c-0.8,0-1.7-0.2-2.5,0c-2.2,0.5-5.3-0.3-4.9,3.9c0.3,3.1,0.3,6.3,0.2,9.4
		c-0.2,6.2-0.7,12.5-0.8,18.7c-0.1,11.9,0,23.9,0,35.8c0,4.6-0.1,9.1-0.1,13.7c0,8.9-0.2,17.8-0.1,26.6c0,2-0.2,4.7,3.5,4.5
		c7.1-0.5,14.2-0.7,21.4-1c2.4-0.1,4.8-0.3,7.1-0.2c5.7,0.2,11.3,0.9,17,0.9c11,0,22-0.5,33.1-0.6c9.8-0.1,19.7,0,29.5,0
		c7,0.1,13.9,0.6,20.9,0.4c9.9-0.3,19.7-1.3,29.6-1.6c14.6-0.5,29.2-0.6,43.9-0.9c5.3-0.1,10.6,0.2,15.9,0.1
		c6.5,0,13.1-0.3,19.6-0.3c6,0,12.1,0.2,18.1,0.3c8.3,0,16.6-0.2,24.9,0.1c5.1,0.2,10.3,1.2,15.4,1.4c4.9,0.3,9.8,0.2,14.7,0
		c0.9,0,2.5-0.8,2.5-1.3c0.4-9.5,0.7-18.9,0.9-28.4c0.3-15,0.4-29.9,0.6-44.9c0.1-10,0.4-20,0.1-30c-0.1-2.5-1.5-6.3-3.4-7.1
		c-3.3-1.4-7.5-1.3-11.3-1.3c-8.6-0.1-17.2,0.2-25.8,0.2c-12.1,0.1-24.3,0-36.4,0.1c-8.9,0-17.9,0.2-26.8,0.3
		c-9.8,0.1-19.5,0.2-29.3,0.3c-12.6,0.1-25.1,0.3-37.7,0.4c-10.4,0.1-20.7,0.3-31.1,0.3c-10.4,0.1-20.9-0.1-31.3,0
		c-7.8,0.1-15.6,0.5-23.5,0.4c-6.9,0-13.8-0.6-20.7-0.7C73.3,344.7,62.2,344.8,51.1,344.8z"/>
	<path class="st3" d="M362.6,113.1c0.1,0,0.1,0,0.2,0c0-1.7,0.1-3.5,0-5.2c-0.2-5.8-1.7-7.4-6.6-7.5c-4.7,0-9.4-0.1-14.1-0.3
		c-5.6-0.2-11.2-0.7-16.8-0.8c-7.5-0.1-15.1-0.1-22.7,0.1c-6.8,0.2-13.5,0.9-20.3,1c-12.2,0.3-24.5,0.4-36.7,0.4
		c-10.9,0-21.8-0.2-32.7-0.3c-3.8,0-7.6,0-11.5,0c-5.8,0-11.7-0.1-17.5,0c-6.2,0.1-12.4,0.2-18.6,0.4c-5.5,0.2-11,0.6-16.4,0.6
		c-6.6,0.1-13.3-0.2-19.9,0c-6.6,0.2-13.2,1-19.9,1c-9.2,0-18.4-0.5-27.7-0.7c-4.3-0.1-8.6,0.2-12.9,0.3c-6.6,0.1-13.2-0.1-19.7,0.5
		c-2.6,0.3-6,1.5-5.8,5.5c0.1,1.2,0.3,2.5,0.3,3.7c0,10.8,0.1,21.6,0,32.4c-0.1,10.3-0.3,20.5-0.3,30.8c0,12.4,0,24.7,0.2,37.1
		c0,0.8,1.3,2.3,2.1,2.4c3.4,0.3,6.8,0.1,10.2,0.2c3.7,0,7.4,0.2,11.1,0.2c6.9-0.1,13.7-0.4,20.6-0.6c8.9-0.2,17.7-0.3,26.6-0.5
		c5.7-0.2,11.4-0.6,17.1-0.7c8.8-0.1,17.6,0,26.4-0.1c7.7-0.1,15.4-0.6,23.1-0.8c6.6-0.2,13.2-0.2,19.8-0.4
		c8.3-0.2,16.5-0.7,24.8-0.8c9.7-0.1,19.4,0.2,29.1,0.3c9,0.1,18,0,27.1,0.1c8.8,0.1,17.5,0.4,26.3,0.4c6.5,0,13.1-0.2,19.6-0.2
		c9.2,0,18.5,0.2,27.7-0.1c6.4-0.2,7.1-1.3,7-7.6c0-1.7-0.3-3.3-0.3-5c0.4-13.6,1-27.3,1.2-40.9
		C362.8,143.1,362.6,128.1,362.6,113.1z"/>
	<path class="st3" d="M354.9,334.5c0,0.2,0,0.3,0,0.5c0.6,0.1,1.2,0.1,1.8,0.1c4.3,0.2,5.6-1.1,5.7-5.4c0.1-5.1,0.1-10.3,0.1-15.4
		c-0.1-11.5-0.2-23-0.3-34.5c0-5.5,0.3-10.9,0.3-16.4c0-3.5-0.1-7-0.1-10.5c0-6.8,0.1-13.7,0-20.5c-0.1-3.4-0.4-6.8-0.8-10.2
		c-0.1-0.5-0.9-1.2-1.5-1.2c-5-0.3-10-0.6-14.9-0.7c-10.3-0.1-20.6-0.1-31,0c-14.1,0-28.3,0-42.4,0.2c-8.6,0.1-17.2,0.4-25.8,0.6
		c-10.6,0.2-21.2,0.4-31.8,0.3c-6.4,0-12.9-0.7-19.3-0.7c-5,0-10,1.1-15.1,1c-19.5-0.1-39-0.6-58.5-0.6c-7.3,0-14.5,1.3-21.8,1.5
		c-6,0.2-12.1-0.5-18.1-0.5c-7.3,0-14.7,0.3-22,0.6c-4.7,0.2-9.5,0.3-14.2,0.9c-1,0.1-2.5,2-2.6,3.1c-0.3,2.9,0.3,5.8,0.3,8.8
		c-0.1,6.2-0.3,12.4-0.4,18.6c-0.1,5.5,0,11.1-0.1,16.6c-0.1,7.2-0.3,14.3-0.4,21.5c-0.1,7,0.1,14.1-0.1,21.1
		c-0.2,5.5-1.1,11-1,16.4c0,2.2,1.1,5.1,2.7,6.4c1.5,1.2,4.4,0.8,6.6,0.8c6.1,0,12.3-0.1,18.4-0.1c9.5,0,19,0.1,28.6,0
		c15.3-0.2,30.6-0.6,45.8-0.6c13.1,0,26.3,0.4,39.4,0.4c7.8,0,15.5-0.5,23.3-0.6c7.2-0.1,14.4,0.4,21.5,0.3
		c13.8-0.3,27.6-1,41.4-1.3c10.3-0.2,20.7,0,31-0.1c8.5-0.1,16.9-0.5,25.4-0.6C335.1,334.4,345,334.5,354.9,334.5z"/>
	<g id="Lager_3">
		<polygon class="st4" points="33.9,91.4 44.4,91.6 78,92 99.9,92 114.6,92 139.9,91.9 170.6,91.4 203.2,91.3 247.7,91.4 
			289.8,91.3 301.7,91.3 345.5,91.3 373.4,91.3 373.4,99.3 372.9,121.6 373,139.7 373,189.6 372.7,197.7 372,215.6 372,222.2 
			372,238.8 372,250.2 372.1,258.9 372.1,273.2 371.5,294.8 371.5,301.7 371.5,315.9 371.7,334.9 371.7,350.7 370.8,381.6 
			370.1,400.6 370,405.4 370.1,416.6 369.8,424.8 369.6,435.2 369.5,462.4 367.2,464.6 356.9,465.1 342.9,464.6 333.8,464 
			320.1,463.9 300.1,464 255.3,464.6 232.5,464.6 219.5,465.1 204.5,465.5 191,466.1 165.7,466.1 135,466.7 73.9,466.2 59.9,466.2 
			39.3,466.2 35,464.9 33.5,461.9 32.5,451.7 32.5,436.1 32.5,396.9 32.5,364.4 32.5,327.3 32.1,298.1 32.1,277.8 32.1,235.7 
			32.1,187.6 32.1,141.4 32.5,129.2 33.4,104.7 		"/>
	</g>
	<g>
		<path d="M31.3,148.1c0.1-12.9,0.6-25.7,0.8-38.6c0.1-3.2,0.7-14.6,0.3-16.4c0-0.3-0.2-0.6-0.5-0.8c-0.4-0.2-0.6-0.2-0.9-0.2
			c-1-0.1-4.5,0.1-6.4,0c-2.4-0.2-1.9-2-1.8-4.2c0.2-6.2-0.1-6.1,5.2-10.5c5.5-4.5,10.9-9.3,16.3-13.9c4.2-3.6,9.7-9.1,13.1-10.5
			c3.6-1.4,14.6-1.1,16.6-1.1c4.6,0,100.7-1.6,151-1.7c26.7,0,53.6-0.6,80-0.6c12.8,0,30.3-0.3,38.5-0.5c9.2-0.2,9.8,0.3,13.6,3.6
			c2.7,2.3,9.5,9.2,13.9,13.8c1.8,1.9,6.2,6.8,8.1,8.9c5.4,5.9,5.5,6.3,5.5,9.8c0,3.9,0.5,6.6-4.4,6.6c-12.8,0-28.9,0-38.6-0.1
			c-13.5-0.1-26.8,0-40.1,0c-12.6,0-25.2,0.2-37.8,0.2c-20.5,0-144,0.5-155,0.5c-12.4,0.1-24.8,0.1-37.2,0c-6.8,0-13.4-0.2-20.3-0.3
			c-3.3,0-12.9,0.1-16,0c-0.9,0-0.9,0.7-0.9,1.4c-0.2,2.1-0.3,7.5-0.3,8.9c-0.1,3-0.2,5.9-0.3,8.9c-0.3,7-0.3,13.7-0.4,20.6
			c-0.2,7.3-0.1,28-0.2,37.2c-0.2,40.7,0.2,142,0.2,161.6c0,25.8,0.3,51.6,0.4,77.4c0,11.1-0.1,26.7,0.1,36.7c0.1,5-0.4,13.3,1.4,18
			c1.2,3.1,10.5,2,14.8,1.9c26.2-0.4,52.4,1.2,78.6,1c26-0.2,52.4-0.5,77.8-1.5c25.8-1,51.8-1.2,77.6-1.1
			c12.9,0.1,25.9-0.1,38.8-0.1c23.1-0.1,26.9,1.4,40.2,0.8c6.9-0.3,4.8-5,4.9-10.9c0.1-6.8,0.3-13.5,0.4-20.3
			c0.2-13.1,0.4-26.2,0.8-39.2c0.3-13.3,2.2-50.2,1.3-79.2c-0.5-13.5,0.3-26.6,0.5-40.5c0.2-13.1-0.5-26.1,0-39.3
			c0.5-13.6-0.1-26.6,0.5-39.8c0.9-18.2-0.1-27,0-40.5c0.1-13-0.1-26,0.5-38.9c0.3-6.3,0.1-9.8,0.1-18.6c0-4.2-0.1-5,1.4-5
			c1.2,0,1,0.5,0.8,7.7c-0.1,4.7-0.4,11.9-0.5,20.5c-0.3,19,0.2,43.9,0,59c-0.3,20.4-1.2,52.4-0.7,78.7c0.3,13.7-0.4,27.4-0.6,41.3
			c-0.2,12.6,0.5,25.2,0.5,37.8c0.1,26.3-1.9,52.7-2.1,79c-0.1,12.7-0.2,25.5-0.1,38.2c0,4.2,1.5,10.3-2.3,12.4
			c-1.4,0.8-2.5-0.6-4.2,1c-1.6,1.5-1.6,6.6-1.9,8.9c-3,22.2-2.2,25-12.6,23.3c-2.5-0.4-3.4-8.4-4.3-14.1c-0.4-3-1-7.8-1.4-10.8
			c-0.3-2.3-0.2-8.6-2.3-8.7c-4.8-0.2-2.7,1.5-5,5c-2,3-10.2,3.6-13.1,0.9c-1.2-1.1-2.3-3.2-2.6-5.2c-0.2-2.2-0.3-1.3-7.5-1.3
			c-6.9-0.1-13.9,0.1-20.8,0.2c-26.1,0.3-52.2,0.4-78.4,1c-13.4,0.3-26.7,0.7-40.1,1.4c-13,0.6-26-0.3-39,0.1
			c-12.5,0.3-25.1,0-37.6-0.2c-4.1-0.1-11.7-0.3-16.3-0.2c-2.6,0,0.2,8.3-5.5,8.7c-3,0.2-8.2,0.2-8.5-2.4c-0.8-7.4-1.2-6.6-3.4-6.7
			c-2.9-0.2-2.6,1.4-3.8,12.3c-0.4,3.1-0.9,6.4-1.3,9.5c-0.9,5.8-1,11.8-6.4,12.2c-8.4,0.7-7.5-2-10.2-18.4
			c-2.4-14.1-0.1-14.9-4.7-15c-1.7,0-3.9-0.8-4.9-2.4c-0.9-1.5-0.9-2.3-1-4.4C30.9,454.4,30.8,252.3,31.3,148.1z"/>
	</g>
	<path class="st0" d="M373.5,81.4c0-0.2,0-0.5,0.1-0.7c0.6-0.1,1.2-0.3,1.8-0.2c3.5,0.1,6.1,0,2.1-3.9c-3-2.9-5.6-6.1-8.4-9.1
		c-3-3.2-6-6.3-9-9.4c-3.5-3.6-6.5-7.7-12.8-7.2c-9.6,0.7-19.2,0.8-28.8,0.8c-10.8,0-21.6-0.7-32.3-0.6c-13.4,0.2-26.8,1-40.3,1.4
		c-9.9,0.2-19.7,0.1-29.6,0.1c-5.4,0-10.9-0.2-16.3-0.2c-6.7,0.1-13.4,0.5-20,0.6c-7.9,0.1-15.8-0.1-23.8-0.1
		c-12.1,0-24.2-0.1-36.3,0.1c-10.3,0.1-20.5,0.5-30.8,0.6c-8.7,0.1-17.5,0-26.2,0.3c-2.1,0.1-4.7,0.7-6.3,1.9
		c-9.6,7.7-19,15.6-28.5,23.5c-0.3,0.3-0.5,0.7-0.8,1.1c0.4,0.2,0.8,0.5,1.3,0.5c6.4,0.2,12.8,0.6,19.3,0.6c11,0.1,22-0.1,33-0.1
		c4.6,0,9.3,0.1,13.9,0.1c7.4-0.1,14.8-0.4,22.2-0.5c6.2,0,12.5,0.3,18.7,0.2c4.9,0,9.9-0.5,14.8-0.6c7.3-0.1,14.6,0.1,21.9,0.1
		c7.8,0,15.6,0,23.4-0.1c3.6,0,7.2-0.2,10.8-0.3c4.9-0.2,9.8-0.5,14.7-0.5c6.5,0,13,0.5,19.6,0.6c4.8,0,9.7-0.4,14.5-0.5
		c4.7,0,9.4,0.4,14.1,0.3c3.1-0.1,6.1-1,9.2-1.1c5.5-0.1,11,0.1,16.5,0.1c6.6,0.1,13.2,0,19.9,0.1c8.9,0.2,17.7,0.4,26.6,0.8
		C352.1,80.4,362.8,80.9,373.5,81.4z"/>
	<path class="st0" d="M243.6,89.9c11,0,18.6-0.1,26.3,0c10.9,0.2,21.7,0.7,32.6,0.9c4.2,0.1,8.3-0.1,12.5-0.2
		c3.5-0.1,7-0.1,10.5-0.2c7.1-0.1,14.3-0.3,21.4-0.2c5.3,0,10.5,0.6,15.8,0.5c5.5-0.1,11-0.5,16.5-0.9c1-0.1,2.7-0.5,2.8-1
		c0.4-2,0.3-4.2,0.2-6.2c0-0.2-0.7-0.4-1.1-0.4c-3.3,0.1-6.7,0.3-10,0.4c-5.4,0.1-10.8,0.2-16.3,0c-6.4-0.2-12.8-0.7-19.2-0.9
		c-4.1-0.1-8.2,0.1-12.3,0c-13-0.4-25.9-1.1-38.9-1.2c-9-0.1-18.1,0.7-27.1,0.9c-10,0.2-20,0.2-30,0.4c-5.8,0.1-11.7,0.5-17.5,0.5
		c-10.6,0.1-21.2,0-31.8,0c-7.6,0-15.3,0.2-22.9,0.3c-3.8,0-7.7-0.2-11.5-0.2c-9.4,0.1-18.7,0.4-28.1,0.5c-7.1,0-14.2-0.3-21.4-0.2
		c-6.7,0-13.3,0.3-20,0.4c-6.4,0-12.7-0.1-19.1-0.1c-8.2,0-16.4-0.1-24.6,0c-1.9,0-4,0.3-5.5,1.2c-0.9,0.6-1.3,2.6-1.3,4
		c0,0.7,1.4,1.9,2.1,2c3.1,0.2,6.3-0.3,9.4-0.1c5.9,0.4,11.8,1.4,17.7,1.6c10,0.2,20.1-0.1,30.2-0.1c8.8,0,17.6,0.1,26.4,0
		c12-0.1,24-0.3,36-0.3c10.3-0.1,20.5,0.1,30.8,0c9.7-0.1,19.5-0.5,29.2-0.6c7.1,0,14.1,0.5,21.2,0.4
		C233.4,90.7,240.1,90.1,243.6,89.9z"/>
	<path class="st0" d="M56.7,466.7c-5.6,0.5-9.6,0.8-13.6,1.2c-0.4,0-1.1,0.8-1,1.1c1.6,9.1,3.2,18.3,5,27.3c0.9,4.7,4.4,1.5,6.7,1.7
		c0.5,0,1.6-1.4,1.8-2.3c1.2-8.1,2-16.2,3.5-24.2C59.6,467.8,59.5,466,56.7,466.7z"/>
	<path class="st0" d="M346.5,464.7c-0.2,0.6-1,1.5-1,2.3c0,1.6,0.5,3.2,0.7,4.7c1.1,8,2.2,15.9,3.4,23.9c0.1,0.7,1.1,2,1.4,1.9
		c1.8-0.5,4.9-1.1,5.2-2.1c2-9.3,3.4-18.8,4.9-28.2c0.1-0.4-0.5-1.4-0.8-1.4C356.2,465.5,351.9,465.2,346.5,464.7z"/>
	<path class="st0" d="M331.6,471.4c2.3,0.2,5.5-3.9,4.8-6.1c-0.1-0.3-0.8-0.6-1.3-0.6c-3.3,0-6.7,0-10,0.1c-0.5,0-1.4,0.3-1.6,0.7
		c-0.9,2.6,1.6,5.9,4.3,5.9C329.1,471.4,330.4,471.4,331.6,471.4z"/>
	<path class="st0" d="M73.4,467.2c-2.1,0.3-5.5-1.3-4.8,3.6c0.5,3.3,2.5,2.4,4.5,2.8c4.4,0.9,4.6-2.4,5.2-5.1c0-0.1-2.6-0.9-4-1.3
		C74.2,467.1,73.9,467.2,73.4,467.2z"/>
	<path d="M84.3,344.9c6.9,0.1,13.8,0.7,20.7,0.7c7.8,0,15.6-0.4,23.5-0.4c10.4-0.1,20.9,0,31.3,0c10.4-0.1,20.7-0.2,31.1-0.3
		c12.6-0.1,25.1-0.3,37.7-0.4c9.8-0.1,19.5-0.2,29.3-0.3c8.9-0.1,17.9-0.2,26.8-0.3c12.1-0.1,24.3,0,36.4-0.1
		c8.6,0,17.2-0.3,25.8-0.2c3.8,0,7.9-0.1,11.3,1.3c1.9,0.8,3.3,4.6,3.4,7.1c0.3,10,0,20-0.1,30c-0.2,15-0.3,29.9-0.6,44.9
		c-0.2,9.5-0.8,25.8-1,26.5c-0.3,1.8-1.6,3.2-3.5,3.2c-4.9,0.1-8.7,0.2-13.6-0.1c-5.1-0.3-31.4-1.5-40.2-1.8c-6,0-12.2,0-18.2,0
		c-6.5,0-13.1,0-19.6,0c-5.3,0-10.6,0.1-15.9,0.2c-14.6,0.2-29.2,1-43.8,1.5c-9.9,0.3-19.9,0.4-29.7,0.7c-7,0.2-13.9,0-20.8,0
		c-9.8-0.1-19.7-0.2-29.5,0c-11,0.1-22,0.2-33.1,0.2c-5.7-0.1-21.8-0.3-24.2-0.2c-7.1,0.3-15.3,0.4-21.3,0.8
		c-3.3,0.3-3.5-2.5-3.5-4.5c-0.1-8.9,0-17.8,0.1-26.6c0-4.6,0.1-9.1,0.1-13.7c0-11.9,0.1-24,0-35.8c0.1-6.2,0.4-12.5,0.5-18.7
		c0.1-3.1,0-6.3,0.1-9.4c0.1-3.3,2.6-3.7,4-3.8c0.8-0.1,2.5-0.1,3.4-0.1C51.8,345.2,73.3,344.7,84.3,344.9z"/>
	<path class="st0" d="M348.9,454.7c0-0.1,0-0.1,0-0.2c1.4,0,2.9,0,4.3,0c2.6-0.1,4.4-0.6,4.3-4.1c-0.1-5.9,0.5-11.9,0.7-17.8
		c0.2-4.4,0.2-8.8,0.3-13.2c0.1-4.6,0.2-9.3,0.3-13.9c0.1-4.8,0.4-9.6,0.4-14.4c0-6.3-0.1-12.6-0.1-18.9c0-7.3,0.1-14.6,0-21.9
		c0-0.9-1-2.5-1.7-2.7c-3.5-0.8-7.2-1.4-10.8-1.6c-5.5-0.3-11-0.2-16.5-0.3c-5-0.1-10-0.3-15-0.3c-5.5,0.1-10.9,0.7-16.4,0.7
		c-6.1,0-12.3-0.8-18.4-0.8c-10.1,0-20.3,0.4-30.4,0.6c-9,0.2-18.1,0.2-27.1,0.3c-6.9,0.1-13.8,0.2-20.7,0.2
		c-12.4,0-24.7-0.3-37.1-0.2c-8.2,0.1-16.4,0.7-24.6,0.9c-5.8,0.2-11.6,0.1-17.4,0.2c-5.9,0-11.8,0-17.7,0.1
		c-3.4,0-6.9,0.4-10.3,0.4c-6.3-0.1-12.6-0.5-18.9-0.6c-6-0.1-12,0.1-18,0.2c-3.6,0-7.2-0.2-10.8,0c-0.6,0-1.7,1.4-1.7,2.1
		c-0.2,4.4-0.2,8.7-0.2,13.1c-0.1,12.1-0.2,24.1-0.3,36.2c-0.1,11-0.1,22,0,33c0,7,0.1,14.1,0.3,21.1c0,0.8,1.2,2.3,1.8,2.2
		c9.3-0.3,18.6-1,27.8-1.1c11.6-0.1,23.1,0.4,34.7,0.6c12.8,0.2,25.5,0.2,38.3,0.3c9.8,0.1,19.7,0.5,29.5,0.3
		c11.8-0.2,23.6-0.7,35.4-1.1c9.7-0.3,19.4-0.8,29.2-0.9c13.1-0.2,26.2-0.1,39.3-0.2c7.2,0,14.3-0.1,21.5-0.2
		c6.7-0.1,13.5-0.4,20.2-0.1C331.6,453.2,340.2,454.1,348.9,454.7z"/>
	<path d="M362.6,158.1c0,10-0.9,39.6-1,44.7c-0.1,3.7-0.5,7.4-3.2,8.4c-4.2,1.8-14.7,0.6-20.6,0.6c-14.6-0.1-28.9,0.2-43.5,0
		c-58.4-1.1-117.7,0.4-175.7,2c-14,0.7-28.1,0.6-42.2,1c-7.1,0.2-14.1,0.2-21.2,0.1c-9.1-0.2-12,1.4-12.1-7.9
		c-0.3-29.9,0.3-59.7,0.2-89.6c0-3.5,0.5-8.9,0.8-10.6c0.4-1.8,1.4-3,3.4-3.7c3.7-1.2,12.5-0.8,17.3-0.8c14.8-0.1,29.7,0.1,44.4-0.1
		c28.7-0.3,67.4-0.8,86-1c32.4,0.1,65.2-0.1,97.3-1.3c15.6-0.6,32.8-0.7,48.5-0.2c1.9,0.2,11.7-0.3,17,1c2.2,0.6,2.7,1.3,2.8,1.5
		c1.5,1.8,1.7,9.7,1.8,12L362.6,158.1z"/>
	<path class="st0" d="M54.9,103.8c-5.1,0-9.2,2.8-9.5,6.9c-0.3,6.1-0.3,12.3-0.3,18.4c0,8.3,0,16.6,0,24.9c0,5.6-0.1,11.1-0.2,16.7
		c-0.1,4.7-0.2,9.3-0.3,14c-0.1,2.7-0.5,5.5-0.4,8.2c0.1,4.4,0.4,8.8,1,13.1c0.3,2.2,1.5,6,2.6,6.2c6.9,0.7,14,0.8,21,0.8
		c3,0,6.1-0.7,9.1-0.7c8.9,0,17.9,0.3,26.8,0.2c9.5-0.1,19-0.6,28.5-0.8c10.5-0.2,21-0.1,31.5-0.4c14.2-0.4,28.4-1.1,42.6-1.5
		c10.8-0.2,21.6,0,32.4,0c8.5,0,16.9,0,25.4,0.1c11.4,0.2,22.8,0.5,34.2,0.7c10.9,0.1,21.8,0.4,32.7,0c8.4-0.3,17.1,1.3,25.2-2.1
		c0.8-0.3,1.8-1.2,1.8-1.9c0.5-9.3,0.9-18.7,1.2-28c0.1-4.2-0.2-8.4-0.2-12.5c0-2.4,0.2-4.9,0.2-7.3c0-7.6-0.1-15.3-0.1-22.9
		c0-10,0-20-0.1-30c0-0.7-0.8-1.9-1.3-2c-4.6-0.6-9.2-1.2-13.8-1.5c-7.7-0.4-15.4-0.7-23.1-0.9c-3.2-0.1-6.4-0.3-9.7-0.2
		c-5,0.1-9.9,0.6-14.9,0.7c-6.4,0.1-12.7-0.1-19.1,0.1c-8.4,0.2-16.9,0.6-25.3,0.7c-7.1,0.1-14.1-0.2-21.2-0.1
		c-9.3,0.1-18.6,0.4-27.9,0.5c-7.5,0-14.9-0.3-22.4-0.4c-5.6-0.1-11.3-0.3-16.9-0.2c-7,0.1-14.1,0.4-21.1,0.7
		c-8.3,0.3-16.5,0.7-24.8,0.8c-9.9,0.1-19.7,0-29.6,0C77.5,103.8,66.2,103.8,54.9,103.8z"/>
	<path d="M128.3,221.1c58.5,0.3,116.8-0.7,175.3-0.8c15.9,0,31.9,0.2,47.8,0.2c2.2,0,7.8-0.6,9.4,1.1c1.7,1.8,1.5,7.3,1.5,9.6
		c0.1,7.4,0,16.3,0.1,24.4c0.2,16.1-0.2,32.1-0.1,48.2c0.1,8.2,0.5,16.6,0,24.8c-0.1,2.1-0.1,4.6-1.4,5.7c-0.9,0.8-1.7,0.6-3.9,0.6
		c0,0-1.2,0-3.1,0c-27.7,0-52.1,0.2-79.8,0.7c-30.2,0.6-62.7,1.2-93,1.2c-29.3,0-58.6,0.1-87.9,0.3c-14.4,0.1-28.7,0-43.1,0.1
		c-5.2,0-7.1-1-7.7-6.8c-0.7-7.2-0.6-14.8-0.6-22.1c0.1-14.5,0.6-29,0.6-43.5c0-7.4-0.1-21.7-0.2-29.1c0-5.5,0.3-8.7,0.9-10.2
		c0.2-0.4,0.5-0.8,1.1-1.2c0.8-0.5,1.6-0.9,2.6-1c3.4-0.6,9.6-0.2,15.1-0.4"/>
	<path class="st0" d="M55.5,225.1C55.5,225.1,55.5,225.2,55.5,225.1c-2.8,0.2-5.6,0.1-8.4,0.6c-0.9,0.1-2.2,1.6-2.2,2.5
		c-0.2,6.2-0.2,12.3-0.2,18.5c0,7,0.2,14.1,0.1,21.1c-0.2,11-0.6,21.9-0.9,32.8c-0.1,3.4-0.1,6.9-0.1,10.3
		c-0.1,6.6-0.3,13.2-0.4,19.8c-0.1,3.2,2.1,3.9,4.8,4c7.8,0.2,15.6,0.4,23.4,0.5c9.5,0.1,19,0.1,28.5,0c11-0.1,22.1-0.3,33.1-0.3
		c8.6,0,17.3,0.1,25.9,0.1c4.7,0,9.3-0.2,14-0.2c8.8,0,17.7,0,26.5,0.1c7.7,0,15.4,0.2,23.1,0.1c10.7-0.2,21.4-0.7,32.2-0.9
		c14.6-0.2,29.3-0.1,43.9-0.3c9.9-0.1,19.7-0.6,29.5-0.6c8.4,0,16.8,0.4,25.2,0.7c3.6,0.1,6.5-2.3,6.5-5.7c0-10.8,0-21.7,0.1-32.5
		c0.1-8.8,0.4-17.5,0.4-26.3c0-6.6,0-13.3-0.2-19.9c-0.1-6.9-0.3-13.8-0.7-20.6c-0.1-1.8-0.7-3.9-1.9-5.1c-1-1-3.2-1.2-4.9-1.2
		c-7.6-0.1-15.3,0-22.9-0.1c-5.7-0.1-11.4-0.5-17.2-0.4c-5.8,0.1-11.6,0.8-17.4,0.9c-7.5,0.1-14.9-0.2-22.4-0.2
		c-8.6,0-17.1,0.1-25.7,0.2c-5.2,0-10.5,0.1-15.7,0.2c-4,0.1-8,0.3-11.9,0.2c-7-0.1-14-0.6-21-0.5c-9.1,0.2-18.2,1-27.3,1.3
		c-4.8,0.1-9.5-0.3-14.3-0.5c-3.6-0.1-7.2-0.3-10.9-0.2c-3.9,0-7.9,0.5-11.8,0.4c-3.7-0.1-7.5-0.9-11.2-0.8
		c-9.4,0.2-18.8,0.7-28.2,1C81.8,224.4,68.6,224.7,55.5,225.1z"/>
	<path class="st4" d="M304.7,79.8c-21.5-0.1-42.7,0.1-64.2,0.1c-44.5,0-89.3,0-133.6,0.7c-13.4,0.2-26.7,0.2-40.1,0.3
		C60.4,81,54,81,47.6,81c-5.9-0.1-20.7,0.6-21.5,0c-0.3-0.3,0.8-1.2,1.3-1.7c2.1-1.8,8.8-7.3,12.6-10.7c5-4.5,15.2-13.8,17.9-14.6
		c2.5-0.7,8.6-0.9,13-0.9c7.2,0,13.5-0.1,20.5-0.2c27.8-0.5,55.6,0.3,83.4-0.3c26-0.6,60.4-0.6,76.9-0.8c16.6-0.2,65.3-0.2,77.1-0.6
		c6.6-0.2,16.8-0.7,21.5-0.5c4.1,0.2,5.2,1.7,13.6,10.5c4.7,4.9,9.2,10,13.7,14.9c1.5,1.7,2.5,3.1,2.9,3.6c1,1.4-3.4,0.9-6.7,0.8
		C369.3,80.5,327.6,79.9,304.7,79.8z"/>
	<path class="st4" d="M34.8,90.7c-2.3,0-7-0.1-8.8-0.2c-0.7,0-1.4-0.1-1.5-1.3c-0.4-3.8-0.7-6.2,1.6-6.1c5.9,0,15-0.2,20.9-0.2
		c12.4,0,24.9,0.2,37.3-0.1c46.8-1.1,94.3-0.4,140.6-1c25.4-0.3,50.9,0,76.3-0.3c25.3-0.3,63.2,0.8,74,0.7c1.5,0,5.5-0.1,6.9,0.3
		c1.5,0.4,1.7,6.2,0.9,7c-1.5,1.6-16.6,1.2-20.2,1.2c-6.6,0-33.8-0.2-41.2-0.1c-26,0.2-58.2-0.3-78-0.2c-17.5,0-46.7,0.1-70.1,0.3
		c-25.3,0.2-61.9,0.5-75.8,0.5c-11.1,0-22.1,0.4-33.2,0.2C58.8,91.2,46,91,42.8,90.9"/>
	<path class="st4" d="M58.7,468.1c0.8,1.1-0.9,13.7-1.4,16.5c-2,12.7-0.9,14.8-8.5,14.2c-3-0.3-4.2-13.3-5.3-22.9
		c-0.4-3.4-1.4-8,0.5-8c3.3-0.2,8.5-0.6,11.6-0.5C57.5,467.4,58.3,467.7,58.7,468.1z"/>
	<path class="st4" d="M358.2,466c3.7,0.1,3,0.6,2.3,5.2c-0.6,3.9-1.4,7.7-1.9,11.5c-0.6,3.9-1.2,15-4.5,15c-5.3,0-4.9-0.9-6.1-9.9
		c-0.9-6.6-3.9-21.9-1.5-21.9C350,465.9,354.5,466,358.2,466z"/>
	<path class="st4" d="M331.6,471.4c0,0-6.9,0.5-7.7-2.7c-1-4.5,1.2-4,4.9-4c4.4,0,7.4-0.7,7.5,1.2
		C336.7,469.8,333.9,471.3,331.6,471.4L331.6,471.4z"/>
	<path class="st4" d="M73.4,467.2c3.1,0,5-0.5,4.5,3.4c-0.5,3.8-3.2,3.2-6,3.3c-2,0-3.4-0.5-3.3-4.7
		C68.6,466.7,71.2,467.5,73.4,467.2C73.9,467.2,71.3,467.4,73.4,467.2z"/>
	<path class="st4" d="M348.9,454.7c-54.8-4.1-109.9-0.8-164.8,0.5c-28.3,0.7-57-0.9-85.4-0.4c-13.3,0.2-35.5-0.1-40.6,0
		c-2.3,0.1-9.4,0.4-11.1,0.3c-2.1-0.1-1.9-4.9-1.9-7.5c-0.2-7.1-0.2-14.2-0.2-21.3c0-14.3,0-28.5,0.1-42.8c0.1-7,0.2-13.9,0.2-20.9
		c0-1.9-0.2-10.7,0.3-13.3c0.6-1.9,2.4-2,4.4-2c3.1-0.1,27.7,0,41.1,0.4c13.1,0.4,26.4-0.3,39.5-0.4c55.6-0.3,111.2-2.1,166.8-1.2
		c15.5,0.3,30.9-0.9,46.5-0.2c3.6,0.1,8.9,0,12.2,1.4c3.8,1.7,3.1,4.4,3.1,8.4c0,7.7-0.1,15.5,0,23.2c0.2,15.2-0.5,30.5-0.7,45.7
		c-0.1,7.7-0.1,15.2-0.3,23c-0.1,2.5,0.1,4.9-0.6,6.2C357,455.1,353.4,455.1,348.9,454.7C345.1,454.5,348.9,454.7,348.9,454.7z"/>
	<path class="st3" d="M210.8,401.8c0-4.7-4.6-8.7-10.2-8.9c-3.6-0.1-8.9,4.8-8.9,8.3c-0.1,7.1,3.8,9.5,10,10.1
		C206.7,411.7,210.7,407.1,210.8,401.8z"/>
	<path class="st4" d="M119.5,103.9c26.5,0,77.8-1,106.2-1c27.3,0.1,55.6-0.4,82.6-1.3c13.1-0.3,35.3-0.1,40,0
		c2.3,0.1,8.1-0.2,10.3,1.5c1.2,1,1.5,2.8,1.6,5.4c0.6,5,0.1,14.5,0.1,21.7c0,13.5-0.1,27-0.3,40.7c0,5.5-0.1,13.5-0.4,20.3
		c0,1.4,0.1,15.5-0.9,17.4c-0.2,0.3-0.7,0.8-1.1,1c-5.1,2.2-14.5,1-19.4,0.9c-7.6-0.1-15.1-0.1-22.6-0.1
		c-14.2-0.1-28.6-0.1-42.8-0.4c-55.7-1.1-111.2,1.6-166.9,2.5c-15,0.2-32.4,0.9-45.1,0.8c-4,0-10.9,0.6-13.9-0.4
		c-0.2-0.1-0.8-0.4-0.9-0.6c-0.7-0.9-0.9-1.9-1.2-4c-0.7-4.2,0-16-0.1-23.4c0.5-15.6,0.5-31.5,0.5-47.3c0-7.6-0.1-15.2,0.1-22.8
		c0.4-8.5,0.1-10.9,9.6-10.8"/>
	<path class="st3" d="M211.6,157.9c-0.1-5-4.3-9.1-9.2-9c-4.1,0.1-9.2,5-9,8.7c0.3,6,4.5,9.2,11.6,9
		C208.5,166.4,211.7,162.2,211.6,157.9z"/>
	<path class="st4" d="M138,223.8c13.9-0.4,26.6,0,40.5-0.3c14.3-0.3,29.4,0,43.6-0.1c28-0.2,56.8,0,84.5-1.1
		c13.8-0.4,27.5,0.2,41.2,0.2c6.4,0,11.1,0.3,11.7,5.4c0.8,6.9,0.7,14.6,0.9,21.6c0.3,13.7,0,27.3-0.2,41
		c-0.1,7.2-0.2,14.3,0.2,21.4c0.2,4.4,0.7,15.5-0.4,18.5c-0.4,1.2-1.4,1.9-2.6,2.1c-3.5,0.8-10.8,1.2-14.2,1
		c-7-0.3-18.5-0.3-25.5-0.2c-13.7,0.3-27.3,0.5-41,0.6c-58,0.2-115.9,0.9-173.9,1.3c-15.6,0.1-31.2-0.4-46.8-0.2
		c-6.6,0.1-11,1.3-11.4-5.7c-0.4-6.1-0.8-16-0.7-23.5c0.2-16.6,1.2-33.2,1-49.9c-0.1-7.9-0.2-15.9,0-23.8c0.1-2.9,0.1-6,2.7-6.7
		c1.6-0.4,8-0.3,8-0.4c0,0.4,0,0,0,0c14.4-0.4,28.9-0.8,43.3-1.3"/>
	<path class="st3" d="M202.3,286.1c4.8,0,8.5-3.6,8.5-8.2c0-5.6-3.7-10.4-8.2-10.3c-5.6,0-10.9,4.8-10.9,9.7
		C191.8,282.2,196.5,286.1,202.3,286.1z"/>
	<path d="M210.8,401.8c0.1,5.4-3.6,9.3-9.1,9.5c-6.3,0.2-10.3-2.9-10-10.1c0.1-3.8,3.7-7.9,8.9-8.3
		C206.2,392.5,210.7,397.1,210.8,401.8z"/>
	<path class="st0" d="M207,405.6L207,405.6C207.1,405.5,207.1,405.7,207,405.6c-0.1,0.2-0.3,0.3-0.4,0.4c-1.5,0.8-3.1,1.7-4.6,2.5
		c0.1,0.1,0.2,0.2,0.3,0.2c1.4-0.7,2.8-1.5,4.2-2.2c0.1-0.1,0.1-0.3,0.1-0.5C206.7,405.9,206.9,405.8,207,405.6z"/>
	<path d="M211.6,157.9c0.1,4.3-3.2,8.5-6.7,8.7c-7.1,0.2-11.3-3-11.6-9c-0.2-3.8,3.6-8.6,9-8.7C207.3,148.7,211.5,152.9,211.6,157.9
		z"/>
	<path class="st0" d="M203.7,164c1.2-0.7,2.7-1.5,4.1-2.4c-0.2-0.2-0.4-0.5-0.5-0.4c-1.6,0.7-3.2,1.5-4.9,2.2
		C202.7,163.6,203,163.7,203.7,164z"/>
	<path d="M202.4,286.1c-5.8,0.2-10.4-3.4-10.5-8.8c-0.2-5.2,5.3-10.6,10.9-9.7c6.1,0.9,8.4,5.1,8.2,10.3
		C210.7,282.6,207.3,285.9,202.4,286.1z"/>
	<path class="st0" d="M207.3,281.4c-0.7-0.1-1-0.3-1.1-0.2c-0.9,0.7-1.8,1.4-2.6,2.1c0.2,0.1,0.5,0.4,0.6,0.3
		C205.1,283,206,282.3,207.3,281.4z"/>
	<path class="st5" d="M206.6,406.1c0,0.2-0.2,0.6-0.3,0.7c-0.5,0.8-2.3,2.6-4,2c-0.1-0.1-0.2-0.1-0.3-0.2c1.9-0.8,2.8-1.2,4.3-2.2
		C206.4,406.3,206.6,406.1,206.6,406.1z"/>
	<polygon class="st3" points="207.1,405.7 207.1,405.5 207,405.6 	"/>
	<path class="st3" d="M206.6,406c0.2-0.1,0.3-0.3,0.5-0.4c0,0,0,0,0,0C206.9,405.8,206.7,405.9,206.6,406L206.6,406z"/>
	<path class="st5" d="M203.8,164c-0.5,0-1.3-0.5-1.3-0.6c0-0.2,1.9,0,4.8-1.5c0.2-0.1,0.5-0.3,0.5-0.3
		C208.1,163.3,205.3,164,203.8,164z"/>
	<path class="st5" d="M207.3,281.4c-1.3,1-1.8,1.7-2.8,2.1c-0.2,0.1-0.7,0-0.9-0.1c0.9-0.7,1.7-1.4,2.6-2.1
		C206.3,281,206.5,281.2,207.3,281.4z"/>
</g>
</svg>
