<?xml version="1.0" standalone="no"?>
<!DOCTYPE svg PUBLIC "-//W3C//DTD SVG 20010904//EN"
 "http://www.w3.org/TR/2001/REC-SVG-20010904/DTD/svg10.dtd">
<svg version="1.0" xmlns="http://www.w3.org/2000/svg"
 width="650.000000pt" height="650.000000pt" viewBox="0 0 650.000000 650.000000"
 preserveAspectRatio="xMidYMid meet">
<metadata>
Created by potrace 1.11, written by Peter Selinger 2001-2013
</metadata>
<g transform="translate(0.000000,650.000000) scale(0.100000,-0.100000)"
fill="#000000" stroke="none">
<path d="M500 3250 l0 -1501 249 1 249 1 4 49 c1 26 0 64 -3 84 -3 20 -3 36 0
36 3 0 5 28 3 63 -1 34 -2 87 -1 117 0 30 0 62 0 70 -1 17 0 53 3 90 1 14 -2
35 -6 47 -4 12 -3 25 2 28 5 3 6 16 2 28 -4 12 -5 45 -2 72 3 28 2 67 -1 88
-4 20 -4 37 0 37 7 0 4 208 -4 228 -2 6 0 12 5 12 5 0 6 12 3 28 -3 15 -5 32
-5 37 4 81 2 156 -3 164 -3 6 -2 11 3 11 5 0 7 12 5 28 -5 34 -4 135 2 140 2
2 0 14 -5 27 -5 13 -6 25 -3 28 7 8 5 475 -2 487 -3 6 -2 10 4 10 5 0 7 12 4
28 -3 15 -5 32 -5 37 4 81 2 156 -3 164 -3 6 -2 11 3 11 5 0 7 12 5 28 -5 34
-4 135 2 140 2 2 0 14 -5 27 -5 13 -6 25 -4 28 8 7 7 455 -1 466 -3 5 -1 12 4
15 5 3 7 15 4 26 -5 19 -14 20 -254 20 l-249 0 0 -1500z"/>
<path d="M1500 3250 l0 -1500 250 0 250 0 1 23 c1 12 0 27 -1 32 -3 13 -1 92
3 125 2 14 0 40 -4 58 -4 17 -3 34 1 37 4 3 4 21 0 40 -4 19 -5 50 -1 68 7 32
5 91 -4 114 -2 7 0 15 4 18 5 3 5 21 1 40 -4 19 -5 50 -1 68 7 32 5 91 -4 114
-2 7 0 15 4 18 5 3 5 21 1 40 -4 19 -5 50 -1 68 4 17 6 43 4 57 -1 14 -2 66
-2 115 0 50 0 97 0 105 -1 8 -1 33 0 55 0 22 1 47 0 55 0 8 0 56 0 105 0 50 0
97 0 105 -2 36 0 137 2 160 2 14 0 40 -4 58 -4 17 -3 34 1 37 4 3 4 21 0 40
-4 19 -5 50 -1 68 7 32 5 91 -4 114 -2 7 0 15 4 18 5 3 5 21 1 41 -5 20 -7 42
-4 48 8 22 10 82 3 114 -4 17 -3 34 1 37 4 3 4 21 0 40 -4 19 -5 50 -1 68 7
32 5 91 -4 114 -2 7 0 15 4 18 5 3 5 21 1 41 -5 20 -7 42 -4 48 8 22 10 82 3
114 -4 17 -3 34 1 37 4 3 4 21 0 40 -4 19 -5 50 -1 68 4 17 6 43 4 57 -1 14
-3 55 -3 93 l-1 67 -249 0 -250 0 0 -1500z"/>
<path d="M3500 3250 l0 -1500 251 0 251 0 -4 25 c-3 14 -2 25 1 25 3 0 5 28 4
62 -3 86 -3 96 -2 155 1 28 -2 56 -5 62 -4 5 -3 12 2 15 5 3 6 27 2 54 -3 27
-3 58 1 68 3 11 3 29 -2 40 -4 12 -5 25 -2 28 3 3 5 36 4 73 -1 38 -2 75 -2
83 2 63 3 107 1 115 -1 6 -2 15 -1 20 1 6 2 46 1 90 -1 44 -1 87 -1 95 3 82 2
110 -3 119 -4 5 -3 12 2 15 5 3 6 27 2 54 -3 27 -3 58 1 68 3 11 3 29 -2 40
-4 12 -5 25 -2 28 3 3 5 36 4 73 -1 38 -2 75 -2 83 3 91 2 110 -3 119 -4 5 -3
12 2 15 5 3 6 27 2 54 -3 27 -3 58 1 68 3 11 3 29 -2 40 -4 12 -5 25 -2 28 3
3 5 36 4 73 -1 38 -2 75 -2 83 2 63 3 107 1 115 -1 6 -2 15 -1 20 1 6 2 46 1
90 -1 44 -1 87 -1 95 3 82 2 110 -3 119 -4 5 -3 12 2 15 5 3 6 27 2 54 -3 27
-3 58 1 68 3 11 3 29 -2 40 -4 12 -5 25 -2 28 3 3 5 36 4 73 -1 38 -2 75 -2
83 3 91 2 110 -3 119 -4 5 -3 12 1 14 5 3 7 26 5 51 l-4 46 -249 0 -249 0 0
-1500z"/>
<path d="M4500 3250 l0 -1499 250 -3 251 -3 -1 50 c-1 45 -2 328 -1 365 0 8 0
80 0 160 0 80 0 152 0 160 0 8 0 80 0 160 0 80 0 152 0 160 0 8 0 80 0 160 0
80 0 152 0 160 0 8 0 80 0 160 0 80 0 152 0 160 0 8 0 80 0 160 0 80 0 152 0
160 0 8 0 80 0 160 0 80 0 152 0 160 0 8 0 80 0 160 0 176 0 145 1 270 1 58 1
135 1 173 l-1 67 -250 0 -250 0 0 -1500z"/>
<path d="M5500 3250 l0 -1500 250 0 c266 0 260 -1 250 45 -4 22 -5 115 0 115
3 0 4 39 2 87 -4 104 -4 97 -1 195 2 43 0 80 -3 83 -3 3 -2 22 1 43 4 20 4 52
0 70 -3 17 -3 32 2 32 5 0 4 11 -1 24 -5 13 -6 26 -4 29 8 8 7 163 0 176 -4 5
-2 12 3 15 5 3 5 21 1 41 -4 19 -4 35 1 35 5 0 4 11 -1 24 -5 13 -6 26 -4 29
3 3 5 41 5 84 -2 93 -2 97 0 148 0 22 0 42 -1 45 -4 15 -4 120 0 120 3 0 4 39
2 87 -4 104 -4 97 -1 195 2 43 0 80 -3 83 -3 3 -2 22 1 43 4 20 4 52 0 70 -3
17 -3 32 2 32 5 0 4 11 -1 24 -5 13 -6 26 -4 29 8 8 7 163 0 176 -4 5 -2 12 3
15 5 3 5 21 1 41 -4 19 -4 35 1 35 5 0 4 11 -1 24 -5 13 -6 26 -4 29 3 3 5 41
5 84 -2 93 -2 97 0 148 0 22 0 42 -1 45 -4 15 -4 120 0 120 3 0 4 35 2 77 -4
126 -4 147 -2 158 1 6 2 18 1 28 -1 16 -20 17 -251 17 l-250 0 0 -1500z"/>
</g>
</svg>
