<?xml version="1.0" encoding="UTF-8" standalone="no"?>
<svg
   xmlns:dc="http://purl.org/dc/elements/1.1/"
   xmlns:cc="http://creativecommons.org/ns#"
   xmlns:rdf="http://www.w3.org/1999/02/22-rdf-syntax-ns#"
   xmlns:svg="http://www.w3.org/2000/svg"
   xmlns="http://www.w3.org/2000/svg"
   viewBox="0 0 300.62668 119.90667"
   height="119.90667"
   width="300.62668"
   xml:space="preserve"
   id="svg2"
   version="1.1">
   <metadata
     id="metadata8"><rdf:RDF><cc:Work
         rdf:about=""><dc:format>image/svg+xml</dc:format><dc:type
           rdf:resource="http://purl.org/dc/dcmitype/StillImage" /></cc:Work></rdf:RDF>
   </metadata>
   <defs
     id="defs6">
     <clipPath
       id="clipPath20"
       clipPathUnits="userSpaceOnUse">
       <path
         id="path18"
         d="M 0,0 H 2254.68 V 899 H 0 Z" />
     </clipPath>
    </defs>
    <g
     transform="matrix(1.3333333,0,0,-1.3333333,0,119.90667)"
     id="g10"><g
       transform="scale(0.1)"
       id="g12"><g
         id="g14"><g
           clip-path="url(#clipPath20)"
           id="g16"><path
             id="path22"
             style="fill:#181817;fill-opacity:1;fill-rule:nonzero;stroke:none"
             d="m 1800.05,619.395 c -19.14,-31.911 -84.15,-117.336 -101.45,-117.336 -47.48,0 32.9,180.015 79.19,280.816 30.6,3.254 64.46,6.395 98.43,8.711 -30.3,-66.102 -64.11,-139.574 -76.17,-172.191 z m -491.93,-98.258 4.25,-13.067 c -6.08,-15.5 -31.61,-77.652 -57.74,-77.652 -47.41,0 10.7,219.828 76.34,219.828 23.1,0 -6.44,-97.5 -22.85,-129.109 z M 711.73,311.527 c -48.628,48.02 64.094,236.996 101.93,236.996 35.559,0 -80.426,-258.23 -101.93,-236.996 z m 816.66,324.102 c 8.51,13.375 45.89,62 64.13,62 23.4,0 -21.28,-112.145 -50.76,-112.145 -12.46,0 -16.41,23.098 -13.37,50.145 z m 482.35,34.695 c 18.24,29.176 49.84,76.285 75.68,76.285 25.83,0 -28.27,-105.156 -60.18,-105.156 -16.11,0 -15.5,20.664 -15.5,28.871 z m 195.62,30.238 c 41.94,54.25 47.87,107.817 11.62,107.817 -36.24,0 -63.58,-53.582 -43.52,-109.426 -32.59,-41.027 -137.51,-174.16 -181.95,-174.16 -35.56,0 -13.45,78.367 3.87,113.926 5.01,-10.715 12.31,-19.832 29.41,-19.832 58.57,0 151.12,175.738 51.96,175.738 -67.92,0 -149.2,-136.281 -151.44,-180.605 -16.18,-28.489 -55.75,-96.567 -79.53,-96.567 -53.46,0 39.16,173.563 92.49,277.309 17.09,0.504 33.68,0.668 49.27,0.359 5.07,-0.019 9.19,3.902 9.3,8.941 0.09,5.032 -3.91,9.196 -8.94,9.293 -12.83,0.25 -26.31,0.184 -40.19,-0.121 32.26,63.75 -24.2,86.067 -24.2,86.067 -8.24,-19.895 -23,-52.469 -39.67,-88.899 -33.56,-2.129 -67.3,-5.117 -98.2,-8.293 1.89,4.114 3.73,8.094 5.41,11.766 18.69,42.852 8.21,62 -24.16,80.234 -6.81,-16.597 -23.09,-54.976 -41.54,-98.75 -42.13,-5.093 -70.49,-9.3 -71.16,-9.394 -4.99,-0.692 -8.47,-5.293 -7.78,-10.281 0.62,-4.563 4.53,-7.868 9.02,-7.868 0.41,0 0.83,0.028 1.26,0.086 0.61,0.082 24.34,3.61 60.52,8.102 -30.29,-72.051 -63.43,-151.902 -69.47,-172.598 -31.53,-50.879 -93.6,-130.711 -126.89,-130.711 -45.58,0 -32.36,74.039 -12.3,125.555 6.84,-25.988 15.04,-32.824 31.91,-32.824 50.15,0 135.39,180.07 43.76,180.07 -76.87,0 -144.03,-140.058 -149.07,-203.434 -11.09,-22.035 -49.01,-82.316 -62.99,-82.316 -45.29,0 44.67,211.524 106.67,305.738 45.59,72.332 -15.81,98.469 -15.81,98.469 0,0 -62.54,-123.75 -96.58,-206.414 -5.47,17.629 -21.88,35.863 -48.62,35.863 -59.57,0 -125.88,-116.453 -131,-170.754 -19.08,-51.503 -69.62,-117.394 -84.21,-117.394 -30.7,0 27.23,127.586 51.85,172.566 26.44,49.235 6.98,68.078 -16.42,69.293 -23.4,1.215 -115.48,-128.859 -134.63,-159.554 19.45,53.183 43.15,112.144 36.77,133.113 -6.38,20.973 -31.91,21.883 -31.91,21.883 0,0 -145.555,-284.356 -165.309,-284.356 -19.758,0 42.336,150.211 50.848,167.531 15.195,31.911 0,52.883 -22.188,62.61 -7.598,-11.856 -17.93,-31.305 -22.793,-44.375 -0.305,21.883 -11.18,46.144 -46.195,39.953 C 686.02,563.113 592.965,335.27 696.383,279.617 c 37.836,-20.363 74.305,64.735 91.176,92.543 -2.282,-27.351 9.582,-70.105 38.757,-70.105 29.176,0 84.375,99.191 96.684,116.058 -12.309,-37.383 -20.031,-80.261 17.254,-92.91 23.793,64.735 96.526,165.852 138.916,219.188 -47.41,-119.442 -46.38,-192.289 -3.07,-192.289 31.15,0 92.16,69.382 113.79,103.769 17.3,-79.359 86.47,-87.906 123.39,-7.676 34.65,-58.351 91.42,-17.011 128.8,45.446 48.32,-83.668 111.03,-65.239 191.33,37.593 1.37,-32.824 13.22,-64.183 48.32,-64.183 38.75,0 75.42,50.543 103.07,84.785 1.58,-43.676 26.19,-66.469 53.55,-66.469 33.22,0 60.37,37.988 83.95,67.645 3.19,-39.203 30.09,-56.528 58.76,-56.528 63.87,0 168.51,135.426 201.14,174.446 28.26,-49.231 7.41,-103.637 -26.78,-103.637 -27.35,0 -34.64,14.59 -39.2,15.957 -2.28,-41.027 21.42,-72.941 61.09,-72.941 49.69,0 77.37,60.332 77.37,90.875 0,47.867 -37.38,69.746 -48.32,99.378" /><path
             id="path24"
             style="fill:#181817;fill-opacity:1;fill-rule:nonzero;stroke:none"
             d="m 820.281,839.414 h -33.797 v -15.672 c 0,0 5.278,2.82 33.797,3.074 V 705.27 l -3.101,-5.993 31.73,4.325 -3.101,5.992 v 117.222 c 27.668,-0.261 33.136,-3.074 33.136,-3.074 v 15.672 h -58.664" /><path
             id="path26"
             style="fill:#181817;fill-opacity:1;fill-rule:nonzero;stroke:none"
             d="m 997.723,839.414 h -31.731 l 3.102,-6.066 v -42.766 c -10.403,-0.348 -23.063,-0.359 -33.906,0.004 v 42.762 l 3.097,6.066 h -31.73 l 3.101,-6.066 V 717.301 l -3.101,-6.031 31.73,4.457 -3.097,6.031 v 57.121 c 10.519,0.473 23.824,0.484 33.906,0.027 v -52.699 l -3.102,-6.031 31.731,4.418 -3.098,6.64 v 102.114 l 3.098,6.066" /><path
             id="path28"
             style="fill:#181817;fill-opacity:1;fill-rule:nonzero;stroke:none"
             d="m 1062.94,741.988 v 38.078 c 38.44,-0.339 39.21,-3.062 39.21,-3.062 v 17.039 c 0,0 -1.34,-2.719 -39.21,-3.063 v 35.825 c 38.81,-0.336 39.21,-3.063 39.21,-3.063 v 15.672 h -67.84 l 3.1,-6.066 v -97.914 l -3.1,-6.036 76.89,11.028 v 15.672 c 0,0 -5.36,-13.93 -48.26,-14.11" /><path
             id="path30"
             style="fill:#181817;fill-opacity:1;fill-rule:nonzero;stroke:none"
             d="m 141.258,56.7656 c -195.7971,0 -79.0197,132.0864 107.066,198.8434 -16.23,-49.902 -19.344,-90.394 2.828,-110.781 7.735,31.141 29.879,77.188 56.746,129.141 46.465,12.015 95.356,19.324 143.54,19.324 23.14,0 47.882,-2.91 61.71,-5.824 0,0 -24.21,52.398 -95.336,52.398 -26.82,0 -53.027,-2.058 -78.414,-5.847 13.043,24.738 26.309,49.984 38.946,74.945 22.847,10.672 66.625,26.969 120.976,26.969 165.207,0 7.278,-379.1684 -358.062,-379.1684 z M 500.777,475.234 c -5.683,0 -13.347,-0.554 -22.281,-1.672 169.637,92.946 274.106,348.821 -17.746,348.821 -376.9883,0 -545.832,-394.453 -275.098,-394.453 107.711,0 142.645,90.246 142.645,128.09 -27.656,-30.571 -97.524,-77.145 -152.106,-77.145 -206.6871,0 -17.468,290.383 267.821,290.383 299.472,0 87.23,-237.891 -25.141,-274.699 33.309,77.742 47.836,141.449 10.582,160.437 0,-54.894 -99.293,-208.258 -155.851,-335.07 C 13.1992,247.184 -124.254,0 150.719,0 528.234,0 785.242,475.234 500.777,475.234" /><path
             id="path32"
             style="fill:#181817;fill-opacity:1;fill-rule:nonzero;stroke:none"
             d="m 1905.67,270.879 c 0,0 -3.42,-0.067 -10.06,-0.191 -6.4,-0.286 -16.1,-0.786 -28.5,-2.743 -12.35,-1.996 -27.58,-5.398 -43.98,-12.797 -16.18,-7.433 -34.04,-19.199 -46.42,-38.285 -12.37,-18.691 -17.61,-45.683 -7.43,-71.191 9.67,-25.555 33.69,-47.1486 64.01,-58.1368 30.3,-11.543 66.12,-12.9454 102.78,-9.2188 36.49,3.9961 75.01,14.5078 107.91,37.5786 32.79,22.425 59.03,59.078 63.77,101.847 5.59,42.461 -12.62,88.231 -47.85,117.363 -34.96,29.817 -83.04,43.415 -131.48,45.207 -48.7,2.016 -98.38,-9.417 -147.41,-23.718 -98.23,-29.653 -195.74,-73.012 -294.68,-116.574 -98.96,-43.696 -198.99,-89.79 -302.74,-127.418 -51.91,-18.5278 -104.86,-35.2192 -159.66,-43.7817 -27.457,-4.1953 -55.215,-5.9297 -83.106,-2.8945 -27.558,2.9219 -55.586,10.2265 -79.051,26.6992 -11.582,8.234 -21.859,18.949 -28.414,32.012 -6.609,12.976 -9.171,28.136 -6.89,42.531 2.113,14.449 8.816,27.762 17.722,38.73 8.957,11.02 20.176,19.778 32.2,26.579 24.226,13.597 51.429,19.496 78.07,21.246 6.715,0.336 13.293,0.629 20.082,0.398 6.504,-0.148 12.992,-0.281 19.711,-0.93 13.346,-0.886 26.236,-2.972 39.136,-5.273 51.41,-10.148 99.07,-29.324 144.77,-48.629 45.74,-19.41 89.96,-39.207 134.29,-54.691 44.25,-15.571 88.69,-26.711 132.43,-30.789 21.73,-1.864 43.71,-2.918 64.34,-0.903 20.83,2.004 40.98,6.813 59.3,14.727 36.57,15.359 66.12,45.16 73.81,80.074 3.96,17.238 2.03,35.008 -4.83,50.152 -6.9,15.172 -18.26,27.602 -31.26,36.825 -26.36,18.468 -57.22,25.722 -85.24,28.882 -28.34,3.032 -54.72,2.153 -78.1,-1.05 -46.97,-6.383 -82.14,-20.614 -103.24,-33.633 -10.59,-6.543 -17.7,-12.746 -22.04,-17.207 -4.32,-4.492 -6.13,-7.082 -6.13,-7.082 -1.77,-2.543 -5.28,-3.168 -7.82,-1.391 -2.55,1.774 -3.17,5.277 -1.4,7.824 l 0.01,0.004 0.22,0.313 c 0,0 2.14,3.074 7.06,8.179 4.93,5.075 12.85,11.926 24.21,18.938 22.67,13.961 59.13,28.594 107.63,35.199 24.26,3.313 51.5,4.235 80.84,1.086 29.13,-3.34 61.62,-10.715 90.54,-30.914 14.25,-10.105 27.1,-24.016 34.98,-41.355 7.86,-17.293 10.03,-37.766 5.55,-57.219 -4.32,-19.492 -14.72,-37.762 -28.88,-52.676 -14.12,-15.039 -31.92,-26.871 -51.45,-35.273 -19.55,-8.442 -40.84,-13.497 -62.68,-15.598 -22.1,-2.1172 -44,-1 -66.49,0.902 -44.86,4.184 -90.25,15.598 -135.07,31.371 -44.92,15.688 -89.39,35.614 -134.96,54.946 -45.53,19.25 -92.58,38.101 -142.52,47.945 -12.45,2.223 -25.15,4.266 -37.737,5.094 -6.218,0.621 -12.746,0.761 -19.277,0.91 -6.246,0.219 -12.73,-0.063 -19.082,-0.383 -25.418,-1.652 -51.047,-7.332 -73.242,-19.812 -21.945,-12.164 -40.645,-32.547 -44.332,-57.204 -1.914,-12.136 0.207,-24.73 5.808,-35.777 5.563,-11.101 14.485,-20.512 24.891,-27.914 21.059,-14.8359 47.375,-21.9296 73.719,-24.6796 26.351,-2.8985 53.621,-1.2735 80.242,2.832 53.52,8.3516 106.01,24.8396 157.53,43.2426 103.07,37.378 203,83.398 302,127.117 99.03,43.594 196.71,87.082 296.03,117.074 49.59,14.437 100.23,26.23 151.05,24.176 50.1,-1.871 100.75,-15.887 138.33,-47.879 18.65,-15.789 33.54,-35.793 42.41,-58.016 9.03,-22.144 12.09,-46.242 9.32,-69.215 -5.15,-46.464 -33.64,-85.949 -68.5,-109.761 -35,-24.5159 -75.34,-35.3948 -113.16,-39.5433 -19.12,-1.8867 -37.58,-2.5195 -55.84,-1.1953 -18.19,1.3984 -35.8,5.0078 -52.08,11.0625 -32.55,11.7773 -59.51,35.4961 -70.55,64.6011 -11.63,29.012 -5.58,60.258 8.46,81.348 14.04,21.578 33.76,34.391 51.21,42.434 17.72,7.98 33.86,11.554 46.87,13.664 13.07,2.062 23.14,2.582 30.04,2.879 6.67,0.129 10.12,0.195 10.12,0.195 3.1,0.059 5.67,-2.41 5.73,-5.516 0.06,-3.105 -2.41,-5.671 -5.52,-5.73 h -0.03" /><path
             id="path34"
             style="fill:none;stroke:#181817;stroke-width:11.2468996;stroke-linecap:round;stroke-linejoin:miter;stroke-miterlimit:10;stroke-dasharray:none;stroke-opacity:1"
             d="M 970.578,70.0117 C 1263.26,36.1562 1763.12,386.195 1955.05,383.766" /></g></g></g></g></svg>