<?xml version="1.0" standalone="no"?>
<!DOCTYPE svg PUBLIC "-//W3C//DTD SVG 20010904//EN"
 "http://www.w3.org/TR/2001/REC-SVG-20010904/DTD/svg10.dtd">
<svg version="1.0" xmlns="http://www.w3.org/2000/svg"
 width="1129.000000pt" height="1512.000000pt" viewBox="0 0 1129.000000 1512.000000"
 preserveAspectRatio="xMidYMid meet">
<g transform="translate(0.000000,1512.000000) scale(0.100000,-0.100000)"
fill="#000000" stroke="none">
<path d="M8840 13750 c-289 -5 -1272 -13 -2185 -19 -913 -7 -1991 -16 -2395
-21 -404 -5 -1120 -14 -1590 -20 -470 -6 -900 -15 -955 -20 -129 -13 -172 -35
-312 -157 -181 -159 -512 -446 -617 -534 -55 -46 -108 -96 -119 -110 -25 -34
-36 -94 -37 -196 0 -109 6 -113 153 -113 92 0 109 -2 114 -17 4 -9 -1 -336
-11 -727 -16 -612 -19 -1226 -23 -4411 -2 -2035 -1 -4026 4 -4425 8 -704 9
-726 29 -760 29 -50 73 -76 143 -84 32 -4 65 -13 71 -21 7 -9 19 -74 26 -147
8 -72 30 -230 49 -352 63 -395 72 -411 234 -405 79 4 93 7 117 29 14 14 35 44
45 66 22 48 58 271 94 578 14 115 31 220 38 235 10 22 20 27 58 29 60 4 70 -9
89 -122 15 -90 15 -91 53 -110 29 -14 62 -19 128 -19 129 0 160 26 177 152 5
34 16 69 24 77 13 13 80 14 564 6 680 -12 1972 -8 2274 7 499 24 1241 38 3149
57 726 7 690 9 691 -44 0 -33 45 -117 76 -141 40 -31 100 -44 185 -38 121 8
172 42 200 136 15 50 41 71 86 71 57 0 64 -21 93 -275 26 -225 62 -465 81
-537 28 -103 48 -123 130 -131 123 -13 175 20 209 132 19 60 90 544 90 611 0
56 22 133 46 157 17 17 34 23 64 23 54 0 76 13 99 58 18 35 19 80 24 987 3
620 11 1071 21 1300 32 727 38 1139 25 1690 -6 286 -9 599 -5 695 4 96 11 738
17 1425 11 1486 31 3996 33 4148 l1 107 102 0 c56 0 114 5 129 10 47 18 53 36
54 151 0 99 -2 108 -29 150 -43 68 -428 485 -608 659 -96 93 -181 167 -214
185 l-54 30 -205 1 c-113 1 -441 -2 -730 -6z m967 -55 c47 -20 203 -173 472
-465 260 -282 298 -327 284 -341 -6 -6 -248 -6 -714 1 -912 13 -4869 13 -6096
0 -1573 -18 -2987 -27 -3011 -21 -22 6 -22 7 15 42 21 20 99 87 173 149 74 63
208 179 298 259 349 310 346 308 578 322 94 6 789 12 1574 14 773 2 1702 8
2065 14 363 5 1265 13 2005 17 740 4 1462 10 1605 14 489 13 712 12 752 -5z
m128 -850 c319 -3 604 -8 633 -11 61 -6 69 -16 78 -97 10 -83 1 -104 -49 -119
-34 -10 -689 -13 -3272 -14 -1777 0 -3705 -6 -4285 -12 -973 -10 -2179 -3
-2307 14 -49 6 -53 13 -55 107 -4 112 -116 100 1034 108 552 4 2040 12 3308
18 1268 6 2517 13 2775 15 478 3 1096 0 2140 -9z m404 -302 c-7 -18 -10 -124
-9 -283 3 -507 -9 -2343 -20 -3140 -6 -448 -11 -981 -10 -1185 4 -819 -8
-2719 -19 -3005 -6 -168 -15 -433 -21 -590 -11 -310 -29 -1266 -34 -1744 l-3
-299 -31 -28 c-42 -37 -79 -41 -332 -35 -118 3 -816 9 -1550 12 -1288 5 -1938
-1 -2570 -26 -882 -35 -2372 -50 -3100 -30 -261 7 -727 14 -1035 14 -502 1
-563 3 -591 18 -35 19 -48 54 -63 163 -14 100 -35 6535 -27 8175 6 1271 19
1957 40 1988 6 11 175 12 934 7 510 -3 1733 -2 2717 3 985 5 2678 9 3762 10
l1973 2 -11 -27z m-999 -10353 c21 -39 -14 -121 -62 -146 -42 -22 -170 -22
-222 0 -57 24 -85 108 -49 148 14 16 34 18 169 18 143 0 154 -1 164 -20z m681
-27 c10 -10 5 -58 -24 -235 -20 -123 -44 -277 -52 -343 -30 -233 -65 -301
-149 -289 -56 9 -82 27 -95 66 -9 29 -61 363 -91 581 -14 107 -13 210 3 226
17 17 390 12 408 -6z m-8421 -32 c23 -6 25 -12 28 -76 4 -81 -7 -188 -49 -479
-33 -223 -39 -249 -71 -283 -24 -25 -90 -39 -142 -29 -44 8 -68 55 -96 182
-26 121 -83 608 -75 644 5 23 13 30 38 35 73 12 330 16 367 6z m557 -21 c14
-31 2 -105 -21 -128 -13 -13 -36 -17 -103 -17 -80 0 -87 2 -104 25 -23 31 -29
111 -10 134 12 14 32 16 120 14 102 -3 106 -4 118 -28z"/>
<path d="M8205 12350 c-613 -24 -1068 -31 -2355 -40 -773 -5 -1511 -12 -1640
-16 -129 -3 -822 -9 -1540 -13 -1037 -6 -1312 -10 -1340 -21 -49 -18 -89 -58
-100 -100 -24 -90 -29 -367 -32 -1580 -2 -1018 1 -1294 11 -1329 15 -54 50
-87 99 -95 91 -15 1219 2 2242 34 1689 52 2846 65 4745 53 1664 -11 1647 -12
1695 32 44 40 49 90 65 660 18 646 20 2067 4 2200 -6 50 -17 105 -25 123 -18
43 -73 67 -189 81 -115 15 -1340 23 -1640 11z m1639 -60 c88 -13 115 -27 140
-70 20 -34 21 -52 24 -550 4 -581 -15 -2083 -28 -2235 -8 -89 -11 -102 -34
-122 -34 -29 -116 -44 -239 -45 -56 -1 -601 5 -1212 13 -610 8 -1441 13 -1845
13 -707 -2 -1041 -7 -2230 -39 -300 -8 -777 -19 -1060 -25 -283 -6 -713 -15
-955 -20 -542 -12 -1050 -13 -1090 -2 -76 21 -87 126 -75 727 5 248 10 770 10
1160 0 391 5 780 9 866 11 190 22 221 90 253 l46 21 1395 1 c767 1 1717 7
2110 13 393 6 981 11 1305 11 588 0 1574 14 2010 29 348 12 1549 12 1629 1z"/>
<path d="M5577 10979 c-131 -31 -217 -140 -203 -256 15 -131 91 -202 240 -225
65 -10 80 -9 120 6 78 30 146 135 146 226 0 50 -30 126 -65 167 -58 68 -156
102 -238 82z"/>
<path d="M7205 8993 c-27 -2 -972 -8 -2100 -13 -1664 -8 -2217 -15 -2935 -33
-801 -21 -888 -25 -918 -41 -70 -36 -66 21 -74 -1111 -10 -1556 -10 -1721 2
-1825 12 -106 31 -154 73 -184 28 -21 40 -21 675 -24 1084 -5 4766 17 5457 33
358 8 1091 17 1630 20 667 5 987 10 1002 17 49 24 48 -15 48 1563 0 1620 3
1534 -58 1579 l-28 21 -1362 1 c-749 0 -1384 -1 -1412 -3z m2616 -64 c122 -19
153 -55 172 -197 9 -73 19 -1268 20 -2577 1 -194 -5 -222 -53 -256 -45 -33
-183 -40 -870 -43 -840 -5 -3072 -22 -4735 -36 -704 -6 -1674 -10 -2155 -8
-986 3 -913 -3 -944 81 -34 91 -46 688 -25 1202 6 143 12 575 13 960 2 766 2
762 59 791 33 18 43 18 1082 43 469 12 2962 30 4265 31 756 0 1860 16 1870 27
9 9 1234 -8 1301 -18z"/>
<path d="M5513 7674 c-58 -21 -127 -85 -157 -146 -49 -99 -29 -207 52 -280 62
-56 104 -71 197 -72 63 0 89 4 121 22 94 48 143 147 130 259 -7 58 -42 137
-72 164 -66 58 -191 83 -271 53z"/>
<path d="M8365 5573 c-363 -1 -1483 -12 -2490 -23 -1006 -11 -2167 -19 -2580
-19 -1833 4 -1977 3 -2018 -14 -72 -31 -67 76 -78 -1546 -8 -1078 -8 -1468 1
-1499 18 -70 31 -73 215 -61 102 7 799 12 1905 14 1747 4 2215 10 2925 42 570
26 2348 25 2800 0 176 -10 446 -21 601 -24 l281 -6 33 30 c31 28 33 34 41 124
21 261 54 2484 40 2714 -6 91 -13 130 -28 160 -57 109 -90 115 -598 112 -214
-1 -687 -3 -1050 -4z m1400 -74 c91 -11 160 -41 189 -82 20 -28 21 -43 24
-500 2 -260 -4 -773 -12 -1142 -9 -368 -16 -789 -16 -935 0 -294 -6 -336 -48
-347 -37 -11 -154 -8 -447 10 -520 33 -859 40 -1720 34 -462 -3 -964 -11
-1115 -16 -1291 -47 -1406 -48 -3904 -40 l-1429 5 -16 24 c-14 22 -16 158 -15
1451 1 1120 4 1434 14 1458 23 55 12 55 870 47 760 -6 1798 2 3065 25 330 6
1335 13 2234 15 898 2 1636 6 1640 10 9 9 591 -5 686 -17z"/>
<path d="M5518 4196 c-93 -26 -164 -96 -188 -186 -9 -32 -9 -59 0 -111 23
-135 105 -199 256 -199 66 0 89 4 132 26 156 78 182 290 50 409 -70 64 -162
86 -250 61z"/>
</g>
</svg>
