<?xml version="1.0" standalone="no"?>
<!DOCTYPE svg PUBLIC "-//W3C//DTD SVG 20010904//EN"
 "http://www.w3.org/TR/2001/REC-SVG-20010904/DTD/svg10.dtd">
<svg version="1.0" xmlns="http://www.w3.org/2000/svg"
 width="1129.000000pt" height="1512.000000pt" viewBox="0 0 1129.000000 1512.000000"
 preserveAspectRatio="xMidYMid meet">
<g transform="translate(0.000000,1512.000000) scale(0.100000,-0.100000)"
fill="#000000" stroke="none">
<path d="M8900 13750 c-272 -5 -1228 -13 -2125 -19 -1704 -12 -2798 -23 -4240
-46 -680 -10 -871 -16 -911 -27 -64 -18 -145 -76 -294 -210 -64 -56 -210 -184
-325 -282 -116 -99 -238 -204 -273 -234 -84 -73 -93 -92 -99 -227 -7 -144 -6
-145 150 -145 92 0 109 -2 114 -17 4 -9 -1 -346 -11 -747 -15 -622 -18 -1264
-23 -4321 -2 -1974 -1 -3954 4 -4400 8 -778 9 -812 28 -850 27 -53 71 -81 142
-88 78 -8 88 -23 97 -134 11 -145 83 -604 107 -688 6 -21 26 -54 44 -72 32
-32 35 -33 116 -33 124 0 165 31 195 143 16 64 55 325 84 566 25 214 29 225
92 229 60 4 74 -15 89 -123 6 -44 13 -84 16 -88 14 -23 78 -37 168 -37 89 0
96 2 125 27 26 24 33 41 45 107 7 43 20 85 28 93 12 13 90 13 593 5 727 -12
1916 -8 2219 6 530 26 1356 41 3132 58 l722 7 6 -29 c12 -56 37 -115 61 -144
48 -56 176 -76 283 -44 65 19 92 45 116 109 26 69 41 85 85 85 69 0 66 9 116
-395 41 -333 67 -466 103 -513 30 -41 165 -50 232 -16 59 30 90 148 134 524
15 124 31 249 37 279 13 70 43 101 98 101 54 0 85 22 106 76 15 39 16 68 11
207 -9 239 10 1655 27 2077 32 754 37 1130 25 1650 -6 272 -9 594 -5 715 4
121 11 780 16 1465 15 1867 32 4002 33 4115 l2 100 118 5 c115 5 120 6 143 33
22 26 24 37 24 130 0 88 -3 107 -23 139 -39 64 -323 375 -552 604 -286 287
-271 279 -525 280 -102 1 -408 -2 -680 -6z m918 -62 c53 -25 163 -134 461
-458 261 -283 298 -327 284 -341 -7 -7 -249 -7 -754 0 -946 14 -4729 14 -5969
1 -1631 -18 -3084 -27 -3104 -20 -21 7 -23 5 297 281 98 85 242 209 320 277
181 157 229 189 303 202 86 15 1264 30 2129 28 413 -2 1144 3 1625 10 481 7
1549 17 2373 22 824 4 1501 11 1504 14 4 3 114 6 247 6 225 0 242 -1 284 -22z
m182 -844 c311 -3 579 -9 595 -13 22 -5 33 -16 42 -42 13 -38 17 -128 5 -146
-25 -39 59 -38 -3212 -39 -1730 0 -3680 -5 -4335 -12 -768 -7 -1360 -8 -1670
-2 -264 5 -532 9 -596 10 -76 0 -121 4 -132 13 -26 18 -29 159 -4 184 20 21
190 22 4247 42 1268 6 2514 13 2770 15 510 3 1413 -1 2290 -10z m-23 -274
c297 0 373 -3 366 -12 -9 -14 -10 -106 -17 -1618 -2 -569 -9 -1406 -16 -1860
-6 -454 -10 -994 -9 -1200 3 -615 -7 -2674 -15 -2825 -23 -471 -54 -1792 -59
-2487 l-2 -267 -24 -25 c-41 -43 -76 -48 -336 -42 -132 3 -825 8 -1540 12
-1314 6 -1888 -1 -2695 -31 -908 -34 -2335 -45 -3055 -24 -203 6 -631 11 -950
12 -531 2 -583 4 -612 20 -35 19 -47 48 -62 157 -6 37 -15 1473 -22 3290 -16
4468 -5 6818 35 6878 7 12 159 13 900 8 490 -3 2264 0 3941 8 1678 8 3218 13
3424 10 206 -2 543 -4 748 -4z m-639 -10378 c8 -11 11 -30 7 -52 -15 -81 -64
-114 -170 -114 -78 1 -134 16 -159 43 -19 21 -31 100 -17 121 8 11 39 16 128
21 146 8 194 3 211 -19z m684 -30 c10 -10 5 -57 -25 -245 -21 -127 -45 -283
-53 -345 -18 -139 -46 -231 -78 -261 -21 -20 -31 -22 -74 -16 -73 10 -91 33
-108 142 -80 508 -99 697 -74 729 12 13 40 15 206 12 139 -2 197 -7 206 -16z
m-8419 -31 c14 -5 26 -20 29 -33 12 -65 -67 -693 -96 -761 -22 -53 -50 -71
-120 -75 -54 -4 -67 -1 -84 16 -26 26 -58 129 -77 247 -16 96 -65 516 -65 550
0 41 16 50 102 56 139 10 285 10 311 0z m552 -15 c21 -32 10 -102 -21 -133
-20 -20 -33 -23 -104 -23 -96 0 -113 12 -123 85 -5 36 -3 55 8 72 15 22 22 23
120 23 99 0 105 -1 120 -24z"/>
<path d="M8225 12350 c-655 -25 -1048 -31 -2335 -40 -773 -5 -1504 -12 -1625
-16 -121 -3 -821 -10 -1555 -14 -988 -5 -1345 -10 -1372 -19 -53 -17 -96 -57
-108 -100 -24 -89 -30 -382 -31 -1591 -1 -950 2 -1286 10 -1318 15 -54 39 -78
93 -93 67 -18 1041 -4 2398 35 1779 52 2666 61 4578 49 908 -6 1603 -7 1630
-2 65 12 94 37 114 97 29 84 50 1052 45 2027 -3 685 -6 798 -19 850 -24 89
-57 107 -222 126 -115 12 -1326 19 -1601 9z m1686 -68 c51 -17 77 -50 90 -113
13 -69 13 -1000 -1 -1949 -11 -742 -18 -870 -46 -901 -30 -33 -117 -52 -249
-52 -195 -1 -2146 21 -2570 28 -446 8 -1311 -5 -2685 -40 -525 -13 -1223 -29
-1550 -34 -327 -6 -638 -13 -690 -16 -196 -10 -874 -8 -902 3 -73 30 -81 121
-68 755 5 276 10 813 10 1192 1 380 5 751 9 825 11 170 23 203 88 233 l48 22
1720 6 c2795 11 5134 34 5275 53 14 2 354 3 755 2 537 -2 739 -5 766 -14z"/>
<path d="M5580 10979 c-98 -19 -192 -111 -205 -203 -9 -59 17 -146 57 -192 42
-47 92 -71 176 -84 96 -15 144 -2 199 56 115 119 83 317 -63 395 -58 31 -103
39 -164 28z"/>
<path d="M6640 8990 c-393 -4 -1248 -8 -1900 -9 -965 -2 -1395 -7 -2315 -30
-1051 -25 -1133 -28 -1169 -46 -75 -36 -69 68 -79 -1440 -11 -1608 -10 -1616
76 -1679 28 -21 41 -21 560 -24 969 -5 4856 18 5527 33 360 8 1108 17 1662 21
l1008 7 21 23 c16 17 23 43 29 101 5 43 8 719 6 1503 -2 1555 0 1480 -59 1524
l-28 21 -1312 1 c-722 0 -1634 -2 -2027 -6z m2825 -48 c379 -7 380 -7 430 -32
62 -31 83 -66 97 -167 10 -67 18 -980 22 -2573 0 -207 -8 -251 -53 -274 -60
-32 -192 -38 -801 -40 -706 -2 -3157 -22 -4600 -36 -553 -5 -1502 -10 -2108
-10 -1244 0 -1157 -5 -1193 75 -37 84 -50 664 -28 1240 6 154 12 586 13 960 2
604 4 684 18 717 30 66 -36 60 873 83 599 15 1077 19 4180 37 1007 5 1911 13
2010 17 244 10 682 10 1140 3z"/>
<path d="M5525 7677 c-87 -35 -142 -86 -176 -161 -86 -190 120 -394 335 -332
164 48 226 242 127 399 -51 79 -202 129 -286 94z"/>
<path d="M8420 5573 c-366 -1 -1277 -9 -2025 -18 -2272 -26 -3576 -35 -3765
-25 -199 11 -845 11 -1146 2 -226 -8 -245 -14 -264 -79 -7 -25 -14 -524 -21
-1493 -8 -1193 -8 -1462 3 -1495 20 -60 39 -65 198 -53 79 5 852 11 1880 13
1761 4 2234 11 2945 42 309 14 608 17 1445 18 970 0 1092 -2 1510 -23 250 -13
523 -22 607 -20 143 3 153 4 177 27 14 13 27 35 30 50 19 92 45 1382 48 2366
1 493 1 501 -21 557 -24 63 -62 101 -119 119 -41 14 -375 17 -1482 12z m1355
-74 c82 -11 151 -43 179 -82 20 -28 21 -43 24 -515 2 -268 -4 -793 -13 -1167
-8 -374 -15 -791 -15 -926 0 -269 -5 -304 -48 -317 -39 -10 -182 -7 -467 11
-493 32 -875 40 -1705 34 -443 -3 -931 -11 -1085 -16 -1325 -48 -1363 -48
-3957 -41 l-1407 4 -13 30 c-10 25 -13 310 -12 1441 0 776 4 1427 8 1447 14
75 -29 72 856 64 757 -6 1761 2 3030 25 333 6 1343 13 2244 15 902 2 1642 7
1645 10 9 10 655 -5 736 -17z"/>
<path d="M5540 4201 c-172 -35 -260 -206 -190 -370 42 -97 119 -136 254 -129
72 4 92 9 133 34 69 43 106 108 111 194 5 83 -8 124 -54 179 -61 71 -167 110
-254 92z"/>
</g>
</svg>
