<?xml version="1.0" standalone="no"?>
<!DOCTYPE svg PUBLIC "-//W3C//DTD SVG 20010904//EN"
 "http://www.w3.org/TR/2001/REC-SVG-20010904/DTD/svg10.dtd">
<svg version="1.0" xmlns="http://www.w3.org/2000/svg"
 width="1155.000000pt" height="1494.000000pt" viewBox="0 0 1155.000000 1494.000000"
 preserveAspectRatio="xMidYMid meet">
<g transform="translate(0.000000,1494.000000) scale(0.100000,-0.100000)"
fill="#000000" stroke="none">
<path d="M7260 13720 c-707 -4 -1656 -13 -2110 -20 -530 -8 -1184 -10 -1830
-6 -1034 6 -1390 0 -1489 -28 -126 -35 -215 -96 -497 -337 -99 -85 -266 -223
-371 -307 -139 -112 -195 -162 -202 -184 -14 -39 -14 -253 -1 -278 14 -27 64
-40 154 -40 45 0 86 -4 92 -8 24 -16 34 -54 39 -149 3 -54 2 -998 -2 -2098 -7
-1664 -10 -2004 -22 -2024 -7 -13 -118 -133 -246 -267 -129 -134 -245 -262
-258 -286 -14 -24 -30 -70 -35 -103 -11 -72 -10 -2095 2 -2660 5 -228 13 -395
19 -403 7 -9 70 -12 253 -12 242 0 243 0 256 -22 17 -30 16 -1421 -1 -1889
-20 -521 -3 -599 128 -599 21 0 43 -6 49 -12 13 -17 28 -99 42 -228 20 -197
70 -574 81 -613 6 -22 21 -50 34 -63 21 -21 33 -24 97 -24 84 1 145 12 165 33
14 14 27 77 83 427 48 300 80 453 97 473 11 12 31 17 65 17 54 0 55 0 83 -103
25 -92 34 -97 175 -97 129 0 180 12 199 48 5 10 17 51 26 90 l17 72 2151 -1
c1184 0 2321 -5 2527 -10 206 -5 729 -12 1162 -15 549 -5 794 -10 809 -18 13
-7 30 -35 44 -74 13 -35 34 -75 46 -89 23 -24 26 -24 152 -21 149 4 144 0 179
111 24 73 44 93 84 83 31 -8 40 -48 48 -210 11 -214 59 -563 97 -689 16 -56
25 -70 47 -78 41 -16 238 -7 256 11 21 21 57 196 116 562 28 172 56 328 61
346 13 40 33 50 124 60 64 6 71 10 91 40 13 18 28 56 34 85 21 96 30 445 36
1430 6 766 10 981 20 995 11 15 42 18 298 22 255 4 287 7 303 23 17 16 18 71
19 900 1 485 7 1004 13 1152 15 376 14 1020 -1 1048 -17 33 -154 201 -323 397
-186 216 -242 285 -262 324 -22 43 -29 584 -14 1171 6 248 16 801 22 1230 23
1719 23 1711 37 1727 9 12 37 17 103 20 121 4 122 4 117 168 -3 105 -7 132
-26 167 -26 49 -112 127 -442 403 -135 112 -276 231 -315 265 -101 88 -160
126 -229 147 -56 18 -104 19 -626 22 -311 1 -1143 -1 -1850 -4z m2457 -62 c53
-19 164 -99 318 -229 66 -55 202 -168 303 -251 185 -151 302 -258 302 -276 0
-18 -171 -22 -1530 -32 -756 -6 -1915 -15 -2575 -20 -824 -7 -1469 -7 -2060 1
-473 5 -1224 7 -1670 4 -776 -6 -1919 5 -1932 19 -12 12 53 69 262 228 116 87
260 202 320 255 128 112 261 203 343 233 132 50 94 49 1899 49 928 0 2172 5
2763 11 3025 32 3193 32 3257 8z m937 -847 c28 -26 42 -90 31 -140 -14 -65 29
-63 -948 -55 -654 5 -965 3 -1202 -6 -198 -8 -689 -14 -1285 -14 -531 -1
-1242 -8 -1580 -15 -456 -10 -843 -11 -1495 -5 -908 8 -1151 9 -2538 3 -947
-5 -847 -18 -847 112 0 68 3 82 24 106 l24 28 164 0 c89 0 1045 -7 2123 -15
2443 -19 3574 -18 4900 4 1360 22 1326 22 2012 21 l591 0 26 -24z m-618 -250
c284 -5 364 -9 377 -20 16 -12 17 -86 16 -875 0 -473 -4 -1077 -9 -1341 -6
-264 -13 -778 -16 -1142 -4 -365 -10 -663 -14 -663 -4 0 -63 73 -132 163 -69
89 -145 184 -169 210 -42 46 -47 49 -119 59 -86 12 -1856 4 -2505 -12 -214 -5
-984 -9 -1710 -10 -1300 0 -2327 -11 -2925 -30 -168 -5 -524 -12 -792 -16
l-487 -7 -39 -41 c-22 -23 -83 -102 -137 -176 -114 -155 -232 -307 -263 -334
-19 -16 -22 -17 -27 -4 -4 9 -1 209 5 444 6 253 8 733 5 1169 -6 804 7 2529
19 2557 4 10 16 20 26 23 18 6 1220 18 1770 18 1020 0 5422 21 5705 27 453 9
969 10 1421 1z m-204 -3671 c26 -6 49 -19 53 -28 13 -30 18 -1014 6 -1045 -6
-15 -23 -32 -38 -38 -18 -7 -762 -9 -2322 -7 -2936 4 -3527 2 -4280 -11 -1164
-20 -1475 -23 -1491 -12 -22 15 -21 970 1 1016 27 57 73 70 254 71 88 1 331 4
540 8 209 3 693 8 1075 11 382 3 826 7 985 10 160 3 916 7 1680 10 765 3 1406
8 1425 10 19 2 278 6 575 10 297 4 542 9 545 12 11 10 946 -5 992 -17z m270
-102 c41 -51 96 -122 123 -158 77 -102 417 -525 590 -735 86 -104 163 -202
171 -217 13 -25 12 -28 -8 -40 -19 -10 -748 -13 -3698 -14 -2674 0 -3822 -4
-4215 -13 -708 -17 -2478 -12 -2497 7 -23 23 19 76 275 345 137 144 348 377
467 517 220 258 315 359 326 348 14 -15 -51 -103 -251 -333 -71 -83 -183 -211
-247 -285 -64 -74 -162 -184 -218 -245 -109 -118 -183 -219 -178 -244 2 -8 21
-19 43 -25 60 -14 914 -12 1770 4 582 11 1415 14 3560 12 1550 -1 3208 2 3714
8 997 12 981 11 981 66 0 31 -30 74 -210 294 -69 85 -171 214 -226 285 -55 72
-139 180 -188 240 -101 127 -196 264 -196 283 0 26 39 -8 112 -100z m188 -376
c132 -174 278 -364 326 -422 113 -139 147 -191 134 -204 -7 -7 -135 -12 -368
-13 -384 -3 -399 -2 -412 47 -4 14 -10 248 -13 520 l-6 495 49 -53 c28 -29
158 -196 290 -370z m-8605 306 c3 -13 2 -233 -3 -490 -6 -358 -10 -470 -20
-480 -16 -16 -336 -22 -602 -11 -175 8 -185 9 -188 28 -4 29 39 89 178 250
131 151 563 663 593 701 23 30 35 30 42 2z m9327 -1146 c19 -19 22 -453 8
-965 -7 -248 -15 -788 -19 -1199 -6 -699 -7 -748 -24 -765 -17 -17 -76 -18
-1080 -20 -3374 -8 -7151 -25 -7867 -35 -454 -7 -966 -12 -1138 -12 -286 -1
-315 1 -326 16 -24 32 -29 321 -31 1631 -1 1069 1 1301 12 1312 10 11 226 14
1195 14 651 1 1440 6 1753 12 352 7 1871 12 3967 14 1869 1 3401 5 3405 9 12
12 131 2 145 -12z m-1028 -3019 c20 -6 33 -19 40 -39 6 -18 10 -353 10 -909 0
-1089 -6 -1183 -80 -1232 -27 -17 -69 -18 -834 -17 -443 0 -1183 6 -1645 12
-1091 15 -2545 15 -3550 1 -559 -9 -1050 -10 -1628 -3 l-829 9 -23 27 c-18 20
-25 46 -32 105 -4 43 -8 506 -8 1030 0 761 3 955 13 965 25 25 754 36 3007 43
1227 4 2610 11 3075 15 1024 9 2444 5 2484 -7z m366 -21 c14 -17 18 -56 23
-249 7 -272 2 -1105 -7 -1288 -4 -71 -11 -281 -16 -465 -9 -355 -19 -433 -61
-475 -19 -19 -35 -20 -602 -23 -592 -4 -1857 9 -2987 30 -381 8 -1590 12
-3096 13 -2373 0 -2473 1 -2492 18 -39 35 -47 125 -46 507 1 610 13 1891 18
1899 8 12 137 22 189 15 35 -5 47 -12 56 -31 8 -17 14 -338 21 -1036 6 -557
15 -1034 19 -1061 9 -52 30 -76 65 -76 12 0 289 -3 616 -7 919 -10 1335 -9
2115 6 719 14 1304 13 4905 -16 691 -6 921 2 966 31 17 12 23 28 28 73 13 129
27 766 31 1413 2 377 7 695 11 708 4 13 17 25 33 28 14 3 31 8 36 10 6 2 43 2
84 0 61 -3 78 -7 91 -24z m-8677 -2528 c31 -12 20 -116 -59 -583 -35 -209 -72
-281 -144 -281 -64 0 -96 55 -118 200 -45 298 -73 533 -70 577 6 68 27 91 87
96 60 6 283 -1 304 -9z m614 -23 c-12 -94 -48 -119 -169 -120 -97 -1 -111 7
-138 79 -19 52 -21 63 -9 71 8 5 83 9 168 9 l154 0 -6 -39z m7098 -3 c11 -11
-16 -109 -35 -128 -23 -23 -117 -36 -173 -24 -36 8 -45 15 -64 54 -25 49 -30
95 -10 104 17 8 274 2 282 -6z m651 -12 c32 -45 13 -244 -57 -596 -37 -186
-65 -281 -87 -297 -9 -7 -44 -13 -79 -13 -60 0 -64 2 -82 31 -36 60 -79 317
-101 619 -13 166 -7 222 27 252 27 24 47 26 211 25 139 -2 155 -4 168 -21z"/>
<path d="M9657 12333 c-4 -4 -895 -8 -1980 -9 -2886 -4 -5853 -20 -6032 -34
-171 -12 -198 -23 -231 -87 -20 -39 -21 -62 -27 -410 -4 -202 -11 -433 -16
-513 -32 -483 -39 -1888 -10 -2003 8 -32 18 -48 36 -56 20 -9 144 -9 517 0
317 7 779 9 1301 5 1195 -10 3447 -7 3860 4 198 6 671 13 1050 16 669 6 762 5
1630 -27 159 -6 308 -8 332 -4 70 10 78 32 76 200 -7 453 -3 1297 9 1795 7
316 13 672 13 790 0 198 -2 218 -20 250 -30 52 -74 68 -211 80 -138 11 -288
13 -297 3z m396 -76 c27 -12 42 -27 53 -54 23 -53 29 -227 15 -443 -7 -117
-12 -591 -12 -1295 -1 -1179 -1 -1159 -48 -1184 -15 -8 -180 -8 -608 0 -410 8
-1005 9 -1968 3 -2122 -12 -6045 -11 -6056 2 -25 30 -31 197 -32 899 -1 596 2
786 16 1034 10 167 22 442 26 610 8 338 11 355 72 387 17 9 73 21 123 26 61 7
837 12 2341 14 1238 2 2628 7 3090 11 462 5 1315 8 1895 7 958 0 1058 -2 1093
-17z"/>
<path d="M5690 10981 c-138 -45 -217 -184 -180 -315 15 -56 69 -120 124 -148
48 -26 157 -30 220 -9 51 17 115 76 137 126 52 113 -6 266 -123 326 -42 22
-140 33 -178 20z"/>
<path d="M5655 6366 c-66 -21 -101 -43 -143 -91 -84 -96 -79 -222 14 -325 54
-59 106 -83 179 -83 81 1 136 17 187 56 92 70 123 197 74 302 -59 127 -181
182 -311 141z"/>
<path d="M5642 4136 c-59 -19 -107 -58 -139 -114 -25 -41 -28 -57 -28 -133 0
-76 3 -90 28 -127 15 -23 46 -54 69 -69 35 -24 54 -29 124 -31 72 -4 89 -1
144 24 100 45 160 130 160 226 0 87 -57 173 -138 210 -56 25 -164 32 -220 14z"/>
</g>
</svg>
