<?xml version="1.0" encoding="utf-8"?>
<!-- Generator: Adobe Illustrator 19.2.1, SVG Export Plug-In . SVG Version: 6.00 Build 0)  -->
<svg version="1.1" id="Byrå" xmlns="http://www.w3.org/2000/svg" xmlns:xlink="http://www.w3.org/1999/xlink" x="0px" y="0px"
	 viewBox="0 0 415.7 537.8" style="enable-background:new 0 0 415.7 537.8;" xml:space="preserve">
<style type="text/css">
	.st0{fill:#FFFFFF;}
	.st1{fill:#FBFFF2;}
	.st2{opacity:0.59;fill:#765283;}
	.st3{display:none;fill:#FFFFFF;}
</style>
<path class="st0" d="M76.7,469.1c-0.5,0-3,0.5-3.5,0.2c-0.5-0.2-3.9-4.3-2.7-4.4c4-0.3,8.1-0.5,12.1-0.6"/>
<path class="st1" d="M85.7,464.3c15.3-0.4,30.8,0,45.9,0c21.4,0.1,42-0.7,63-0.3c41.6,0.7,78.1,0.1,119.4,1.6
	c3.7,0.1,9-0.9,11.6,0.6c1.5,0.9,0.2,4.8,2.2,6c1.3,0.8,3.4,0.8,4.8,0.9c6.2,0.1,4.2-5.6,8.1-7.6c4.5-2.3,3.9,4.7,4.2,8.5
	c0.5,5.2,1.2,10.4,1.5,15.6c0.2,3,0.5,8.2,2.7,10.7c0.9,1,6.1,1.8,7.4,0.7c2.5-2.1,2.7-4.7,3.2-7.8c0.8-5,1.9-10.8,2.8-15.8
	c0.9-5.9-0.8-10.4,4.2-11.6c5.2-1.2,6.3-0.8,6.3-5.8c0.1-5.3,0.3-10.5,0.5-15.8c0.5-10.2,0.9-20.6,0.9-30.8c0-6.1,0.2-12.1,0.2-18.2
	c0-5.2-0.7-20.4-0.2-21.8c0.9-2.2,18.2,1.4,21.8-2.3c1.9-2,0.8-10.6,0.8-14.6c0.1-5.8,0-11.5,0-17.3c-0.1-20.5,0.4-41.1,0.8-61.5
	c0.1-4.4,0.5-8.7,0-13c-0.5-4.3-1.4-5.3-4.4-8.3c-5.6-5.7-15.1-15.7-17.8-21.9c-1.4-3.2,0.1-9,0-12.4c-0.1-4.6-0.1-9.4,0-14
	c0.3-10.9,0.5-21.8,0.7-32.7c0.4-22,0.9-43.8,1.1-65.8c0-4.5-2.4-23.1,0.9-24.3c2.8-1.1,5.7,1.6,7.6-1.7c1.9-3.3,0.2-8.5-2-11
	c-5.4-6-15.7-13.8-22.7-19.7c-3-2.6-6.2-5.4-9.8-7.1c-4.7-2.2-10.2-1.4-15.2-1.5c-22.3-0.3-44.1,0.2-66.3,0.2
	c-47.8,0-95.6,1.6-143.9,1.2c-11.7-0.1-23.5-0.6-35.2-0.5c-11.6,0.1-22.3-2.2-32,4.8C49.5,56.8,40.7,65,31.8,72
	c-3.7,3-5.3,6.2-4.3,11.6c0.8,4.5,7.7,3.2,9.4,2.9c2.9,2,1.9,14.5,1.8,21c-0.2,11.5-0.5,23.3-0.5,34.8c0.1,20.8-0.4,41.3,0.3,62.1
	c0.4,9.7-0.1,19.2-0.6,28.6c-0.2,3.9,0.2,7.2-2.2,10.5c-3.3,4.4-8.2,8.2-12,12.2c-6.7,7.1-6.1,11.6-5.8,21.2
	c0.4,11.1,0.3,22.2,0,33.3c-0.5,19.1-0.1,38.2,0.5,57.4c0.1,3.1-0.8,5.6,1.5,6.9c2.3,1.3,10.2-0.1,13.2,0.3c5.5,0.6,4.2,1,4.4,6.5
	c0.2,6.2,0,12.4,0.1,18.5c0.1,10-0.1,20.5-0.4,30.5c-0.2,5.2-0.2,10.4-0.1,15.6c0.1,4.4-1.3,10.4,0,14.5c1.5,5,2.2,1.8,4.9,4.1
	c2.2,1.9,1.8,4.7,2.5,7.5c2.2,8.6,1.5,26,5.6,26.8c7.8,1.4,8.8-10.6,9.9-16.7c0.5-2.7,1.3-15.1,3.5-17c4.2-3.7,6,0.5,7,4.6
	c0.9,3.4,7.4,2.3,10.8,1.6c1.5-0.3,2.6-5.3,2.4-6.4L85.7,464.3z"/>
<path id="Grå_skugga" class="st2" d="M307.1,258.9c-46.7,0-93.8-0.3-140.5-0.3c-22.1,0-44.2,1-66.4,1.2
	c-10.6,0.1-21.7-0.3-32.4-0.1c-3.4,0.1-4.3,0.9-5.7-1.4c-2.2-3.7,0.3-14.5,0.5-18.3c0.3-5.1-1.1-11.9-0.3-16.9
	c0.9-5.8,4.2-3.9,9.9-4.1c10.3-0.3,21.3-0.3,31.3-0.7c16.2-0.7,46.4-1,69.9-0.9c22.8,0.1,45.4-0.6,68.2,0
	c23.2,0.6,45.5-0.7,68.2-1.2c11.1-0.2,22.4-0.4,33.5,0.1c2.5,0.1,7.3-0.3,9.6,0.6c4.3,1.6,4,0.3,4.2,5.7c0.2,6.9,0.3,13.9,0.3,20.8
	c0,3,0.6,12.3-1.6,14.2c-2.4,2.1-12.1,1.1-14.9,1.1C337.4,258.8,307.1,259.1,307.1,258.9z"/>
<path id="Grå_skugga_vänster" class="st2" d="M61.3,243.5c-0.2,3.7,1.3,11.6-0.1,14.9c-1,2.2-8.5,1.8-12.4,1.8
	c-4,0-11.2,0.8-17.3-0.5c-3.8-0.8-1.7-2.2,1.5-5.8c2.8-3.1,5.5-6.3,8.2-9.4c5.9-6.7,13.8-17.1,19.3-22.8c0,0.4,1,6.1,1,5.6
	C61.7,231.8,61.7,238.1,61.3,243.5z"/>
<path id="Grå_skugga_höger" class="st2" d="M357.7,218.2c6.3,7.5,12.9,16.8,19.1,24.3c2.2,2.7,10.6,11.2,11.3,14.6
	c0.7,3.5-8,1.4-11.5,1.5c-4.2,0.2-10.4,1-14.6,0.3c-4.9-0.7-3.8-3.2-4-8C357.6,241,357.7,228.1,357.7,218.2z"/>
<path d="M82.5,465.3c-0.5-0.4-11.3-0.3-11.8,0.2c-0.4,0.4,0.7,2.8,0.9,3.4c0.6,1.7,0.8,2,3.7,2c5.7,0,6-0.4,6.8-2.6
	C82.2,467.7,82.8,465.5,82.5,465.3z M83.8,469.1c-1,4.4-2.9,3.4-11.8,3.5c-2.6,0-2.3-7.1-4.1-7.2c-4.4-0.2-3.9,0.6-4.7,4.8
	c-0.9,4.5-1.6,9-2.4,13.5c-0.7,3.8-1.9,12.9-2.4,14.2c-0.9,2.1-5.1,1.7-8.1,1.7c-3,0-3.3-4-3.8-7.8c-0.7-5.3-1.4-10.6-2-15.9
	c-0.4-3.3-0.8-9.9-2.2-10.1c-2.1-0.2-4.7,1-5.6-3.6c-0.6-3.3-0.6-9.1-0.4-12.7c0.6-11.2,0.2-22.3,0.6-33.6
	c0.4-10.2,0.4-20.3-0.2-30.5c-0.4-6.8,0.6-9.9-1.2-9.9c-2.6,0-7.7,0.2-14.4,0.2c-1,0-3.4,0.2-3.5-1.8c-0.1-1.2,0-3.5,0-4.9
	c0-4.1-0.1-8.2-0.1-12.4c-0.1-10.4-0.9-20.9-0.6-31.3c0.2-9.6,0.5-19.2,0.5-28.9c0-9.8-0.7-20.2-0.3-30c0.3-6.2,3.5-7.6,16-21
	c2.3-2.4,4-3.4,4.2-6.2c0.1-1.8,0.2-13.2,0.3-19c0.1-11.2-0.3-22.3-0.2-33.4c0.1-12.9-0.1-25.6,0.1-38.5c0.2-11.4,0.3-22.5,0.3-34.1
	c0-26.7,0.4-26.9-3.2-27c-1.7,0-7.3,0.6-7.5-2.3c-0.2-3.3-0.6-9.4,1.3-10.7c0.7-0.5,7.7-6.2,10.9-8.7c4.5-3.5,8.7-7.4,13-11
	c3.5-2.9,7.2-6,11.4-7.8c4.4-1.8,10-1.6,14.8-1.7c11.3-0.3,22.6-0.2,33.9,0c42.1,0.6,84.2-0.4,126.3-0.8c22.3-0.2,44.6-0.1,66.9-0.2
	c10.3-0.1,20.5,0,30.8,0.1c4.3,0.1,9.7-0.6,13.8,0.5c4.5,1.2,8.1,5.1,11.6,8.1c7,5.9,16.3,13.4,22.2,18.7c3.6,3.3,3.4,7.2,3.2,11.3
	c-0.1,4.1-1.1,3.4-5.7,3.4c-3.4,0-2.7,0.8-2.9,5.9c-0.1,5.3-0.2,10.6-0.3,15.9c-0.1,11.9-0.3,23.9-0.4,35.8
	c-0.3,21.4-0.6,42.8-1.3,64.3c-0.1,4.6-0.1,9.3,0,13.9c0.1,3.7,0.5,12.4,0.6,13c0.3,1.8,12.2,14.6,17.1,20.8
	c3.8,4.8,4.7,5.4,4.7,7.1c0.1,4.2-0.1,4.4,0.1,14.9c0.1,10.2-0.6,20.8-0.6,30.7c0,10.2-0.5,20.4-0.4,30.6c0,4.8,0,9.7,0.1,14.5
	c0.2,11.9,0.9,17.9-0.5,19.4c-2.4,2.6-20.5-0.7-21.9,1.7c-0.9,1.5-0.3,14.2-0.3,17.5c0,6.6,0,13.3,0,19.9c0,10.3-0.4,22.8-0.6,30.9
	c-0.2,10.2,0.2,23.2-4,23.5c-6.4,0.4-5.7-0.1-6.9,7.1c-0.9,5.5-1.8,10.9-2.7,16.4c-0.4,2.7-2.1,10.8-2.4,11.3
	c-0.6,1-8.3,1.5-10.2,0.4c-2-1.1-4.3-21.5-4.5-26.2c-0.4-8.2-0.1-8.9-2.8-8.8c-1.5,0-1.3,1.5-2.3,4c-1,2.8-0.8,3.1-5.9,3.1
	c-0.9,0-2.9,0-4.4-0.1c-2.3-0.2-3.1-4.9-3.6-6.2c-0.5-1.2-2.6-0.8-10.9-0.8c-11.7-0.1-23.4,0.1-35.1-0.3c-23.4-0.7-46.5-1-70.4-1
	c-11.4,0-25.2,0-34.5,0c-11.7,0-23.5-0.2-35.3,0c-17.5,0.2-52.5,0-53.6,0C84.4,465.1,84.4,466.3,83.8,469.1z M358.2,219.7
	c-0.3,0.3,0.4,22.6,0.5,29.2c0,7.6-0.8,9.1,3.5,9.1c4,0,5.5,0,14.4-0.1c1.6,0,10.5,0.4,10.8-0.7c0.3-1-8.5-11.3-9.7-12.8
	C373.7,239.7,358.9,218.9,358.2,219.7z M23.1,373.2c5.5,0.4,15.4,0.3,22.2-0.1c9-0.6,33.5-0.6,50.6-0.8c32.3-0.4,64.6,0,96.9-0.2
	c34.1-0.2,68.2-0.1,102.3-0.5c16.6-0.2,33.4-0.2,50,0c8.3,0.1,16.9,0.1,25.1,0c6.5-0.1,23.5-0.1,24.6-0.5c2-0.7,1.4-7.6,1.3-16.8
	c-0.1-8.5,0.2-16.8,0.2-25.5c0-15.9,0.9-31.6,0.8-47.7c0-3.7,0.1-14.6-0.5-15.8c-0.5-1.2-6.1-0.3-10.4-0.4c-4.4,0-8.2,0.2-12.8,0.2
	c-15.9,0.2-31.7-0.3-47.7-0.1c-63.1,0.4-129.4-0.5-194.1,0.6c-35.5,0.6-71.4,0.7-107.1,0.5c-4.5,0-5.4-0.5-5.4,2.8
	c-0.1,3.5,0,9.2,0.1,12.8c0.2,8.9,0.3,18.5,0.1,26.8c-0.7,26.7,0.1,46.2,0.4,58.3C19.8,373.3,19.7,373,23.1,373.2z M50.4,432.5
	c0,7.1,0.4,12.2,0.4,13.4c0.2,7.5,1.3,6.7,11.5,6.5c9.7-0.2,25.1,0.5,37.6,0.5c23.8,0.1,48.6-0.7,72.5-0.8
	c52.2-0.4,105.3,0.4,158,1.2c6.7,0.1,13.4,0,20.1-0.2c9-0.2,9.7,1,10.3-10.6c0.7-12.6,0.2-25.4,0.4-38c0.1-6.4,0.2-12.8,0-19.3
	c-0.3-11.4-0.5-10.9-1.3-11.3c-0.5-0.3-13.2-0.4-17.2-0.5c-6.6-0.2-13.4,0-20,0c-53.6,0.2-107.1,0.8-160.4,1
	c-28,0.1-56.1-0.1-84,0.2c-7.8,0.1-20.9,0.7-24.7,0.7c-4.1,0-3.4,0.1-3.5,12.2C50.4,402.4,50.3,421.1,50.4,432.5z M335.2,258.3
	c4.7,0,9.4,0.2,14.2,0.1c8.3-0.2,7-0.3,7.1-9.4c0.1-5,0-10-0.1-14.9c-0.1-2.6,0.1-13.7-0.5-15.4c-0.6-1.6-11.3-1.5-14.1-1.5
	c-5.8-0.1-11.3-0.2-17.2-0.1c-19.9,0.4-44.7,0.9-66.9,1.1c-21.8,0.2-44,0.1-66.4,0.2c-22.5,0.1-45.9,0.6-68.6,0.7
	c-11.6,0.1-24.4,0-34.8,0.3c-4.4,0.1-8.5,0.4-13,0.3c-6.1-0.1-11.5-0.5-11.8,3.3c-0.4,4.5-0.4,12.2-0.5,17.1
	c-0.1,5.2,0.1,10.1,0,15.2c-0.1,3.5,0.5,3.5,1.2,3.9c0.8,0.4,16-0.1,21.5-0.1c12,0,43.4-0.8,65.1-1c26.3-0.2,52.6,0.1,78.9,0.2
	c25.8,0.1,58.1,0.1,77.5,0C314.2,258.3,332.1,258.3,335.2,258.3z M370.1,61.8c-5.6-4.5-12.7-11-18.4-14.7c-4.6-3-14.7-1.3-21.8-1.2
	c-6.1,0.1-16.4-0.2-24.8-0.1c-32.7,0.6-67.1,0.2-98.1,1c-32.7-0.3-65.5,0.5-98.2,0.1c-7-0.1-13.9,0.2-21,0
	c-6.5-0.2-15.7-0.7-21.9,1.3c-6.2,1.9-13.2,8.5-18,12.7C45.1,63.4,29.5,74,31.4,74.5c1.2,0.3,34.2,0.6,49.2,0.7
	c14.3,0.1,28.6-0.4,42.8-0.3c29,0.1,57.9,0.8,86.8,0.5c39.8-0.4,128.1-0.9,145.2-1.1c16.6-0.2,27.4-0.3,27.6-0.6
	C383.9,72.6,372,63.3,370.1,61.8z M39.1,238.8c0.7,0.5,8.2-9.7,11.8-14.6c1.7-2.3,4.2-6,5.6-6.1c1.9-0.2,6-0.1,9.2-0.1
	c14.5,0.1,29-0.4,43.4-0.8c31.8-0.9,63.4-0.8,95.2-1c14.6-0.1,29.2,0,43.8,0c15.1,0,30.3-0.5,45.2-0.7c15.6-0.2,30.9-0.3,46.5-0.3
	c6,0,19.5-0.5,21.9,0.9c2.3,1.3,11.9,15.4,12.6,15.1c0.5-0.3,0.2-19.9,0.3-28.8c0.1-11.5,0.5-22.4,0.6-33.8
	c0.3-21.4,0.5-42.8,0.4-64.2c0-4.1,0.1-12.3,0.1-16.1c0-2.7-1.5-2.6-6.7-2.5c-9.9,0.2-19.1-0.6-29.2-0.6
	c-17.2,0.1-41.2,0.9-61.9,0.9c-43.2,0-86.4,0.2-129.5,0.7c-19.7,0.2-39.4-0.7-59.1-0.1C79,87,69.1,87.3,59,87.3
	c-4.2,0-8.4-0.3-12.6-0.3c-6.2,0-6.7-0.5-6.7,5.1c0,21.9-0.4,43.7-0.4,64.4c0,24.2,0.5,54.2-0.2,72.3
	C39,231.3,38.9,238.7,39.1,238.8z M362,453.7c-0.6,2.2-18.5,1.5-23.8,1.6c-16,0.1-32.1,0-48-0.2c-34-0.5-68-0.4-102.1-0.7
	c-34.5-0.3-69.2,1.9-103.6,0.6c-8.1-0.3-16.1-0.5-24.2-0.3c-2.2,0.1-7,0.7-9.3-0.1c-2.1-0.7-1.7-1.9-1.9-7.4
	c-0.5-15.9-0.7-31.8-0.6-47.8c0-4.4-0.1-8.8-0.1-13.2c0-5.2,0.1-9.5-0.9-10.5c-0.9-0.9-6.8-0.3-8-0.3c-1.5,0.1-0.7,9.1-0.6,11.8
	c0.4,17.5-0.5,34.7-0.7,51.9c-0.1,5.2-0.4,22.2,1.8,23.4c2.7,1.5,6.6,0.7,23,0.8c16.9,0.1,34.3,0,50.8-0.2
	c65.5-0.8,131.2,0.8,196.7,1.5c10.1,0.1,20.1,0.3,30.2,0.1c4.8-0.1,9.6,0,14.3-0.1c3.1-0.1,11.2,0.1,14.1-0.1
	c3.4-0.2,3.5-9.9,3.6-22.6c0.1-9.7,1-19.3,0.8-28.9c-0.2-9.8,0.2-19.5,0-29.2c-0.2-7,0.8-9.9-3.1-9.9c-6.4,0-6.4-0.1-6.9,2.7
	c-0.5,3.2-0.1,11.1,0,14.5c0,4.7,0,9.3-0.1,14c-0.1,6.1-0.1,19.1-0.5,30.4C362.6,443.4,362.7,451.2,362,453.7z M29,84.7
	c1.4,1.3,13.3,0.4,15.6,0.4c12,0,24,0.6,36,0c24.5-1.2,48.7,0.3,73.1,0.3c25.1,0,55-0.2,75.2-0.9c24.7-0.8,49.4,0.6,74.1-0.5
	c24.5-1.1,48.9-0.2,73.4-0.2c4.9,0,8.3,0.8,8.4-3.1c0.1-5.4-2.3-5.1-7.4-5.2c-11.9-0.1-23.9,0.1-35.9,0.2
	c-50.1,0.4-99.7,2-149.6,1.5c-27.2-0.2-54.5-0.7-81.7-0.6C83.9,76.7,33.6,76,31.8,76c-1.7,0-2.9,0.9-3.2,2.3
	C28,80.8,28.3,84.1,29,84.7z M395.9,262.4c0.6-0.9-12.3-15.4-18.5-23.5c-2.8-3.6-5.9-7.2-8.6-10.8c-2.1-2.8-8.2-11.1-9-10.6
	c-1.2,0.8,8.9,12.8,12.1,17.1c2.6,3.4,5.2,6.8,7.9,10.2c2.7,3.2,6.3,7.6,8.7,10.9c3.5,4.9-5.3,3.9-9.8,4c-8.7,0.2-17.3,0.2-26,0.3
	c-31.7,0.4-63.3,0.5-95,0.3C195.8,260,131.4,259.8,69,261c-6,0.1-39.8,0.7-42-0.6c-1.9-1.1,6.3-9.5,7.7-11.1
	c3.2-3.5,5.9-6.5,8.8-9.9c4.8-5.8,16.9-18.9,15.5-19.5c-1.4-0.6-14.6,16.3-19.7,21.8c-3.5,3.8-7.1,7.5-10.7,11.3
	c-1.2,1.3-9.7,9.3-8.3,10.5c0.9,0.8,59.2,1,88.3,0.3c31.3-0.8,62.7-0.5,94.1-0.7c60.3-0.4,169.4,0.6,181.1,0.1
	C387,263.2,395.1,263.9,395.9,262.4z M60.3,223c-0.5-0.1-12,14.2-17.5,20.5c-2.8,3.2-5.5,6.3-8.2,9.5c-4,4.8-4.2,6.2-1.7,6.2
	c5.4,0.1,26.2,1.1,27.1-0.3c1-1.5,0.6-13.1,0.6-15.5c0.1-5.4,0.3-13.2,0.4-16C60.9,226.4,61.1,223.1,60.3,223z M347,480.4
	c1.1,12.4,2.7,17.5,3.4,18.6c0.6,1,5.2,1,6,0.1c0.8-0.9,1.8-4.9,3.3-12.5c1.6-8.1,3.4-18.5,1.4-19.9c-1.1-0.8-7.4-0.4-11.2-0.3
	C345.7,466.5,346.1,470.2,347,480.4z M59.8,475.7c0.2-1.6,1.9-8.6,0.9-9.8c-0.8-1-11.1-0.6-12-0.5c-4.2,0.3-2.4,7.2-1,16.9
	c1.3,9.5,1.5,14.6,5.3,14.6C57.3,496.9,57.9,488.5,59.8,475.7z M328.5,471.4c0.9,1.3,7.5,0.8,8.1,0c0.5-0.6,1.8-4.5,1.2-4.9
	c-0.9-0.5-9.6-0.6-10.5,0C326.6,467,328.1,470.8,328.5,471.4z M312.9,371.9C312.8,371.7,312.7,372,312.9,371.9
	C312.9,371.8,312.9,371.9,312.9,371.9z"/>
<path class="st3" d="M19.9,366.7c0-16.6-1.5-33.3-0.9-49.9c0.3-8.6,0.5-17.1,0.4-25.7c0-3.1,0-6.3-0.1-9.4
	c-0.1-3.1-1.6-9.9-0.4-12.7c2-5,11.3-2.9,16.4-2.9c8.1,0.1,16.1-0.2,24.2-0.3c16-0.2,32,1.5,48.1,0.6c31.6-1.9,64-1.2,95.7-1
	c32.4,0.1,64.8,0,97.2,0.1c16.2,0,32.4-0.7,48.6-0.7c7.5,0,15.1-0.1,22.6,0.4c4.1,0.3,7.9,0.5,11.9,0.2c2.8-0.2,9.6-2.2,12.1-0.5
	c3.6,2.5,1.5,11,1.4,14.9c-0.1,8.8-0.3,17.6-0.9,26.4c-1,16-0.4,32.1-0.8,48.1c-0.1,4.8,1.4,14.8-3.1,17.1
	c-5.1,2.6-16.8,0.8-22.5,0.6c-16.5-0.5-33.1-0.8-49.6-0.9c-33.8-0.2-67.6,0.9-101.5,1c-36.9,0.1-73.8,1-110.7,0.3
	c-18.2-0.3-36.6,1.6-54.7,0.9c-8.6-0.3-17.3-0.6-26-0.8c-2.2,0-6.4,1.1-7.6-1.2C19.2,370.2,21.7,367.5,19.9,366.7
	C19.9,361.4,22.2,367.8,19.9,366.7z"/>
<path class="st3" d="M50,432.5c0-12.9,0.2-25.8,0.6-38.7c0.1-3.6-2-13.7-0.3-16.7c1.9-3.3,11.2-2,15.1-2.2
	c25.6-1.3,51.3,0.3,76.9-0.1c53.4-0.8,107,0.3,160.4-1.6c12.9-0.4,25.8-0.4,38.7-0.1c4.5,0.1,12.5-1.3,16.7,0.5
	c4.5,1.9,2.9,5.7,3,10.2c0.3,13,0.3,26-0.2,39c-0.2,6.1,0,12.1,0,18.1c0,8.1-0.1,11.8-8.8,12.3c-26.4,1.4-53.2-0.5-79.7-0.4
	c-26.4,0.1-52.8,0.3-79.1,0.1c-27.4-0.2-54.7-0.9-82.1-0.8c-14.5,0-28.8-0.1-43.3-0.8c-4.4-0.2-13.4,1.9-16.3-1.8
	C50.6,448.2,50.1,432.5,50,432.5C50,425.7,49.9,432.5,50,432.5z"/>
<path class="st3" d="M381.3,73.5c-57.1,0-114.1,1.9-171.2,2.1c-28.9,0.1-57.8-1.1-86.7-0.8c-13.7,0.1-27.5,0.4-41.3,0.4
	c-7.6,0-15-0.5-22.5-0.9c-8.6-0.5-17.1,0.3-25.7-1c0.7-3.3,11.1-9.9,14-12.5c4.8-4.2,11.7-10.8,18-12.7c6.2-1.9,15.4-1.2,21.9-1
	c7,0.2,14,0.3,21,0.4c32.8,0.4,65.5-0.2,98.2-0.4c32.7-0.2,65.4-1.2,98.1-1.2c8.3,0,16.5,0.2,24.8,0.5c7.4,0.2,15-1.7,21.9,1.6
	c6.6,3.2,12.3,9.5,18,14.2C371.6,63.5,383.2,72.8,381.3,73.5C376.2,73.5,381.1,73.6,381.3,73.5z"/>
<path class="st3" d="M40.2,228.8c0-20.9-2.2-41.6-1.4-62.5c0.7-19.9,1.5-39.9,1.6-59.9c0-4.8-0.4-9.6-0.6-14.4
	c-0.2-4.4-0.5-4.4,3.9-4.8c9.7-0.8,19.9,0.5,29.6,0.2c9.7-0.3,19-0.8,28.7-0.5c10.4,0.3,20.6-1.5,31-0.9c43.1,2.6,86.4,0,129.5,0.1
	c20.1,0.1,40.1-0.6,60.1-1.1c9.9-0.2,20-0.5,29.9,0c5.1,0.3,10.4,0.9,15.5,0.8c4.6-0.1,5.5-1.3,7.3,2.5c1.8,3.9-0.2,15-0.1,19.3
	c0.1,5.9,0.5,11.8,0.4,17.7c-0.2,11.4-0.3,22.8-0.4,34.3c-0.1,12.3-0.2,24.4-1.2,36.7c-1,11,1.8,23.1-0.4,33.9
	c-3.9-3.4-6.3-12.6-10.8-14.9c-5.3-2.7-17-0.6-23-0.8c-15.5-0.4-31-0.8-46.5,0.1c-14.9,0.9-30.5,2.3-45.3,1.9
	c-14.5-0.4-29-1.4-43.6-1c-31.8,0.9-63.6,0.9-95.4,1.8c-14.4,0.4-29,0.6-43.4,0.7c-3.1,0-9.1-1.5-11.9-0.6c-4,1.4-2,1.5-3.3,5.1
	c-2,5.6-6.6,10.7-10.6,15C39.7,236.5,39.3,228.8,40.2,228.8C40.2,223.1,40,228.8,40.2,228.8z M366.8,105.8
	c-1.5-8.6-0.6-11.4-10-11.9c-7.4-0.4-14.8,0.3-22.2,0.5c-13,0.3-26.2,0.3-39.1,0c-29.2-0.7-58.4,0.1-87.7,0.2
	c-29.2,0.1-58.4-0.6-87.5-0.3C106,94.4,91.7,94,77.4,94.4c-6.8,0.2-14,0-20.7,0.9c-8,1.1-5.9,7.1-6.2,14.1
	c-1.3,29.3-1.8,58.3-2,87.7c0,1.6-1,7.3-0.2,8.5c1.4,2,2.2,0.7,4.3,0.8c7.6,0.4,15-0.2,22.5-0.6c14.1-0.7,28.2,0.5,42.3,0
	c28.5-1.1,57.1,1.8,85.6,1c27-0.8,54.1-1,81.1-2.1c15.5-0.6,31.2-0.4,46.7,0.2c7.2,0.3,14.3,1,21.5,1.2c6.8,0.1,13,3.6,13.2-5.1
	C366.4,169.4,363.2,137.2,366.8,105.8C366.3,102.6,366.2,111.3,366.8,105.8z"/>
<path class="st3" d="M363.4,435.9c0-17.6,0.9-35.3,0.4-52.9c-0.1-1.8-1.2-7.3,0.2-8.5c1-0.9,7.4-0.1,8.1,0.5
	c4.2,3.9,0.9,19.6,1,24.8c0.3,17.3-0.2,34.6-0.9,51.9c-0.1,2.7,0.5,9.3-1,11.6c-1.6,2.4-4.2,1.9-6.8,2c-9,0.3-18,0.7-27,0.4
	c-32.7-0.9-65.2-1.9-97.9-2.2c-17.1-0.2-34.1-0.9-51.2-1.2c-17.1-0.3-34.1,0.9-51.2,0.7c-16.1-0.2-32.1-0.9-48.2-0.3
	c-8.6,0.3-17.3,0.5-25.9,0.4c-5.6-0.1-20.6,1.8-23.9-2.9c-2.9-4.2-1.2-14.7-1-19.6c0.4-9.4,0.7-18.8,1-28.2
	c0.3-8.4,0.1-16.7-0.3-25.1c-0.1-2.2-1.8-9-0.3-10.9c1.1-1.3,7.4-1.9,8.6-0.8c3.1,2.6,1.3,18.1,1.3,22.2c0,8.4-0.8,16.8-0.6,25.2
	c0.1,8.1,1.2,16.2,1.2,24.2c0.1,7.8,2,7,9.6,6.5c16.4-1.1,33.2,1.1,49.6,0.9c17.7-0.2,35.3,0.2,52.9-0.2
	c38.4-0.8,77.6-0.8,115.9,1.2c18.2,1,36.6,0.3,54.9,0.1c7.7-0.1,18.9,2.2,26.2-0.1c3.7-1.2,4.4-3.3,5.1-7
	C363.5,447.6,363.6,435.9,363.4,435.9C363.4,429.6,363.4,435.9,363.4,435.9z"/>
<path class="st3" d="M32.6,75.9c46.9,2.4,94,0.6,141,1.2c49.5,0.7,99-1.3,148.4-1.2c11.8,0,23.8,0.5,35.6,0.3
	c4.9-0.1,29.7-4.8,27.2,4.5c-1.7,6.3-20,2.7-25,2.5c-12.6-0.5-25.2-0.1-37.7,0.1c-49.9,0.8-100.1,3.1-149.9,1.9
	c-27.4-0.7-54.7-1.2-82.2-0.7c-13.2,0.2-26.2,0.9-39.5,0.5c-3.7-0.1-17.7,1.4-20.3-0.9c-0.7-0.7-1.1-3.7-0.8-5
	C29.5,78.9,31.9,72,32.6,75.9C37.1,76.1,32.5,75.6,32.6,75.9z"/>
<path class="st3" d="M383.7,263.2c-60.3,0-120.8-0.4-181.1,0.1c-31.3,0.2-62.7-0.1-94.1,0.7c-29.2,0.7-59.2,1.2-88.3-0.5
	c0.2,0,7.1-9.1,8.3-10.3c3.5-3.8,7.3-7.3,10.8-11.2c5-5.7,12.5-20.6,19.8-21.8c-1.7,6-8.9,11.4-13,15.9c-5.5,6-10.9,12.3-16.1,18.6
	c-5.1,6.2-3.1,6.2,4.3,6.7c7.8,0.5,15.9,0.7,23.8,0.5c30-1.1,60.7-1.9,90.7-1.6c63.9,0.7,127.7,0.7,191.6,0
	c8.7-0.1,17.4-0.2,26.1-0.3c3.1,0,22.6,1.6,23.7-1.7c1.1-3.3-13.2-16.8-15.4-19.6c-2.6-3.4-5.2-6.9-7.8-10.3c-2-2.6-6.4-6.8-6.9-9.9
	c3.2,1.3,5.7,6.5,7.7,9.1c3,4,6.1,8,9.2,11.9c6.2,7.7,13.2,14.6,19.8,21.9C393.8,263.3,387.3,262.8,383.7,263.2
	C377.3,263.2,386.7,262.8,383.7,263.2z"/>
<path class="st3" d="M349.6,468.3c4.4,0,8.7,0,13.1-0.1c-2.1,6.6-2.4,13.6-3.4,20.5c-0.3,2.1-0.3,9.1-1.7,10.6
	c-1.2,1.3-6.3,2.1-7.6,1.2c-3.8-2.6-2.6-15.5-3.1-20C346.7,477.3,343,466,349.6,468.3C352.3,468.3,345.5,466.8,349.6,468.3z"/>
<path class="st3" d="M53,496.9c-5.3,0.9-4.5-9.8-4.8-13.1c-0.5-4.4-4.3-17.3,0.5-18.8c1.2-0.4,10.6-0.3,11.4,0.4
	c2,1.8,0.4,5.8,0,8.6C59.2,479.9,59,495.4,53,496.9C48.4,497.7,53.9,496.7,53,496.9z"/>
<path class="st3" d="M328.1,467.5c0.7,0,9.3,0.4,9.3,0.1c-1.9,5.2-7.3,4.5-10.7,0.5C327.2,467.9,327.7,467.7,328.1,467.5
	C331.6,467.5,328,467.5,328.1,467.5z"/>
<path d="M215.8,317.5c-0.3,4.3-3.1,9.2-10.7,9.2c-4.4,0-8.8-4.3-8.8-9.7c0-5.4,5.8-9.2,11.6-8.9
	C211.9,308.4,215.8,313.1,215.8,317.5z"/>
<path d="M205.8,388.5c6.2,0,10.1,3.3,10.2,8.7c0,5.6-5.6,9.2-10.9,9.1c-4.3-0.1-8.3-3.3-8.3-8.2C196.8,393,199.9,388.9,205.8,388.5z
	"/>
<path d="M365.6,188.1c0,3.9,1.8,16.8-1.1,17.8c-1,0.4-6.1,0.2-8.2,0.2c-3.6-0.1-7.2-0.2-10.8-0.4c-13.3-0.6-26.6-1-39.8-1.1
	c-16.2-0.1-54.8,1.2-82.3,1.4c-28.6,0.2-65.4-0.2-85.6-0.2c-13.3,0-63.8-0.6-83.5,0.5c-1.7,0.1-4.5,0.1-5-1.3
	c-0.7-2-0.8-4.9-0.8-6.8c-0.1-16.8,0-12.9-0.1-19.3c-0.2-15.6,0.1-31.1,0.9-46.7c0.4-7.1,0.7-14.2,0.9-21.2c0.1-5.8-2-14.6,4.6-15.2
	c3.9-0.4,14.9-0.8,21.1-1c7.7-0.2,15.3-0.2,23-0.1c28.9,0.3,57.5,0.2,86.2-0.1c33.3-0.3,66.9-0.8,100.1-0.7
	c14.4,0,30.1,0.5,43.3,0.5c7.9,0,17.5-0.6,23.7-0.6c3.2,0,8.7,0.2,11.6,1c3.4,1,3.2,7.7,3,10.9C366.6,111.5,365.4,160.9,365.6,188.1
	z M362.5,203.6c1.4-1.2,1.5-3.2,1.4-6.6c-0.1-7.1-0.2-14.1-0.2-21.2c0.1-13,0.1-26,0.1-38.9c0-6-0.2-12.1,0.3-18.2
	c0.3-4.5,1.3-18.8-0.6-21c-1.5-1.6-2.5-2-16-2c-6.9,0-13.7,0.4-20.6,0.3c-55.9-0.5-120.3,0.8-167.6,0.9c-28.1,0-59.7-0.8-84.4-0.5
	c-5.5,0.1-12.8,0.5-18,0.9c-5.7,0.5-5,5.8-5,10.6c-0.1,17-1.1,26-1.5,39.5c-0.4,13.7-0.2,27.4,0,41.2c0.1,4.2-0.1,14.5,1.4,15.3
	c1.3,0.7,17.8,0,23.1,0c13.9-0.1,28.4,0.3,42.5,0.1c14.6-0.2,29.4-0.3,44-0.1c33.3,0.4,66.4,0.1,99.7-0.3c32-0.4,72.2-0.1,96.3,0.6
	C358.7,204.1,361.6,204.3,362.5,203.6z"/>
<path class="st0" d="M205.7,324.3c4-1.3,6.9-3.1,7.2-3.5C211.8,323.3,207.6,324.5,205.7,324.3z"/>
<path class="st0" d="M208.1,404c-0.4,0.2-0.9-0.1-1-0.2c0.2-0.2,0.5-0.4,0.7-0.5c1.5-1.2,2.5-1.9,4-3.1c0.1-0.1,0.2-0.2,0.3-0.3
	c0,0.1,0,0.2,0,0.3C212,400.6,209.5,403.5,208.1,404z"/>
<path class="st3" d="M357.3,204.2c-57.3-3-114.5,1.5-171.8,0.6c-29.4-0.5-59.1,0.9-88.5-0.5c-6.9-0.3-13.7-0.6-20.7-0.4
	c-6.8,0.2-16.2,1.8-22.8-0.2c-3.6-1.1-3-0.5-3.2-4.9c-0.1-3.4-0.1-6.8-0.1-10.1c-0.1-6.8-0.3-13.6-0.2-20.4
	c0.2-12.5,0.4-24.9,1.3-37.5c0.5-7,1.2-14.1,1.3-21.2c0.1-4.5-1.5-10,3.4-12c4.8-2,12.2-0.7,17.4-0.9c7.4-0.3,14.7-0.5,22.1-0.2
	c13.2,0.5,26.4-0.1,39.6-0.1c56.1,0.2,112.3,0.3,168.3-0.1c15.5-0.1,31.2-1,46.7-0.4c7.1,0.3,13.4-1,13.7,7.4
	c0.3,8.1-0.8,16.3-0.5,24.5c0.4,13.9,0.5,27.8,0.4,41.7c0,7.8,0,15.6-0.2,23.3c-0.1,2.1,0.8,9.1-0.7,10.4
	C362,204.1,357.3,203.6,357.3,204.2C353.8,204,357.3,204.1,357.3,204.2z"/>
<path d="M198,151.7c-0.2-5.6,4.7-9.2,8.3-9.4c6.8-0.4,10.1,5.5,10.1,9c0,5.5-4.1,8.8-9.6,8.8C201.8,160.1,198.2,156.6,198,151.7z"/>
<path class="st0" d="M208.8,157.4c-0.7,0.1-1.4,0.1-2.1,0c1.9-0.8,3.8-1.7,5.6-2.7C211.7,155.8,210.1,157.1,208.8,157.4z"/>
</svg>
