<?xml version="1.0" standalone="no"?>
<!DOCTYPE svg PUBLIC "-//W3C//DTD SVG 20010904//EN"
 "http://www.w3.org/TR/2001/REC-SVG-20010904/DTD/svg10.dtd">
<svg version="1.0" xmlns="http://www.w3.org/2000/svg"
 width="1155.000000pt" height="1494.000000pt" viewBox="0 0 1155.000000 1494.000000"
 preserveAspectRatio="xMidYMid meet">
<metadata>
Created by potrace 1.13, written by Peter Selinger 2001-2015
</metadata>
<g transform="translate(0.000000,1494.000000) scale(0.100000,-0.100000)"
fill="#000000" stroke="none">
<path d="M7260 13720 c-707 -4 -1656 -13 -2110 -20 -531 -8 -1183 -10 -1830
-6 -1021 6 -1391 -1 -1485 -27 -129 -36 -214 -93 -477 -318 -106 -91 -282
-236 -390 -323 -142 -114 -200 -166 -207 -188 -14 -39 -14 -253 -1 -278 14
-27 64 -40 154 -40 45 0 86 -4 92 -8 24 -16 34 -54 39 -149 3 -54 2 -998 -2
-2098 -7 -1657 -10 -2004 -22 -2024 -7 -13 -120 -135 -251 -272 -182 -189
-245 -262 -266 -306 l-28 -57 -1 -1105 c0 -1176 11 -1958 27 -1979 8 -9 71
-12 254 -12 242 0 243 0 256 -22 17 -30 16 -1421 -1 -1889 -20 -521 -3 -599
128 -599 21 0 44 -6 50 -14 13 -15 23 -88 76 -516 39 -317 46 -352 80 -386 21
-21 33 -24 97 -24 84 1 145 12 165 33 14 14 27 77 83 427 49 303 80 453 97
473 11 12 31 17 65 17 54 0 55 0 83 -103 25 -92 34 -97 175 -97 129 0 180 12
199 48 5 10 17 51 26 90 l17 72 2151 -1 c1184 0 2321 -5 2527 -10 206 -5 729
-12 1162 -15 549 -5 794 -10 809 -18 13 -7 30 -35 44 -74 13 -35 34 -75 46
-89 23 -24 26 -24 152 -21 149 4 144 0 179 111 24 73 44 93 84 83 31 -8 40
-48 48 -210 10 -195 62 -578 96 -696 20 -73 24 -75 164 -75 98 0 129 3 140 15
21 21 56 190 116 560 28 173 56 330 62 348 12 40 32 50 123 60 64 6 71 10 91
40 55 81 62 235 70 1510 6 771 10 986 20 1000 11 15 42 18 298 22 255 4 287 7
303 23 17 16 18 71 19 900 1 485 7 1004 13 1152 15 372 14 1020 0 1048 -17 32
-150 195 -324 397 -187 217 -242 285 -262 324 -22 43 -29 584 -14 1171 6 248
16 799 21 1225 24 1721 24 1716 38 1733 9 11 37 16 103 19 121 4 122 4 117
168 -3 105 -7 132 -26 167 -26 49 -111 127 -442 403 -135 112 -276 232 -315
265 -101 88 -160 126 -229 147 -56 18 -104 19 -626 22 -311 1 -1143 -1 -1850
-4z m2457 -62 c53 -19 164 -99 318 -229 66 -55 202 -168 303 -251 185 -151
302 -258 302 -276 0 -18 -171 -22 -1530 -32 -756 -6 -1915 -15 -2575 -20 -824
-7 -1469 -7 -2060 1 -473 5 -1224 7 -1670 4 -776 -6 -1919 5 -1932 19 -12 12
53 69 262 228 116 87 260 202 320 255 128 111 232 184 321 224 132 60 73 58
1921 58 928 0 2172 5 2763 11 3025 32 3193 32 3257 8z m937 -847 c28 -26 42
-90 31 -140 -14 -65 29 -63 -948 -55 -655 5 -964 3 -1202 -6 -198 -8 -687 -14
-1285 -14 -531 -1 -1239 -8 -1575 -15 -453 -10 -837 -11 -1495 -5 -914 8
-1158 9 -2543 3 -947 -5 -847 -18 -847 112 0 68 3 82 24 106 l24 28 164 0 c89
0 1045 -7 2123 -15 2443 -19 3574 -18 4900 4 1360 22 1326 22 2012 21 l591 0
26 -24z m-618 -250 c284 -5 364 -9 377 -20 16 -12 17 -86 16 -875 0 -473 -4
-1077 -9 -1341 -6 -264 -13 -778 -16 -1142 -4 -365 -10 -663 -14 -663 -4 0
-64 73 -132 163 -69 89 -145 184 -169 210 -42 46 -47 49 -119 59 -85 12 -1841
4 -2500 -12 -217 -5 -987 -9 -1710 -10 -1299 0 -2337 -11 -2930 -30 -168 -5
-524 -12 -792 -16 l-487 -7 -39 -41 c-22 -23 -83 -102 -137 -176 -114 -155
-232 -307 -263 -334 -19 -16 -22 -17 -27 -4 -4 9 -1 209 5 444 6 253 8 735 5
1174 -6 808 7 2524 19 2552 4 10 16 20 26 23 18 6 1220 18 1770 18 1020 0
5422 21 5705 27 453 9 969 10 1421 1z m-203 -3669 c21 -6 42 -13 45 -17 14
-14 20 -188 21 -611 1 -514 7 -484 -95 -494 -59 -5 -1418 -5 -4484 -1 -888 2
-1667 0 -1730 -3 -63 -3 -286 -8 -495 -11 -209 -3 -592 -8 -850 -11 -448 -7
-472 -6 -489 11 -18 18 -18 43 -14 504 4 370 8 492 18 513 7 15 29 35 49 45
43 21 278 28 1206 32 325 1 615 4 645 6 92 5 1219 15 2425 20 627 3 1291 7
1475 10 184 3 529 8 765 11 237 4 432 9 435 11 10 9 1037 -5 1073 -15z m269
-104 c41 -51 96 -122 123 -158 77 -102 417 -525 590 -735 86 -104 163 -202
171 -217 13 -25 12 -28 -8 -40 -19 -10 -744 -13 -3698 -14 -2673 0 -3822 -4
-4215 -13 -708 -17 -2478 -12 -2497 7 -23 23 19 76 275 345 137 144 348 377
467 517 220 258 315 359 326 348 14 -15 -53 -104 -251 -333 -67 -77 -166 -192
-220 -255 -54 -63 -155 -177 -224 -253 -133 -145 -204 -240 -199 -266 2 -8 21
-19 43 -25 60 -14 910 -12 1770 4 580 11 1423 14 3560 12 1550 -1 3208 2 3714
8 1000 12 981 10 981 67 0 29 -34 75 -295 400 -325 405 -525 672 -525 700 0
27 38 -6 112 -99z m-45 -70 c49 -62 162 -210 250 -328 88 -118 205 -271 261
-338 149 -180 197 -251 183 -265 -9 -9 -112 -13 -372 -15 -401 -4 -403 -3
-413 60 -10 65 -18 998 -8 998 5 0 50 -51 99 -112z m-8376 -454 c-2 -258 -7
-480 -11 -494 -4 -17 -16 -27 -36 -31 -37 -8 -481 -8 -639 0 -114 6 -120 7
-123 28 -4 30 31 80 172 243 65 74 230 269 368 433 137 164 255 296 262 294 8
-3 10 -126 7 -473z m9331 -692 c19 -19 22 -447 8 -966 -7 -253 -15 -795 -19
-1203 -6 -694 -7 -743 -24 -760 -17 -17 -76 -18 -1080 -20 -3387 -8 -7160 -25
-7867 -35 -448 -7 -958 -12 -1133 -12 -291 -1 -320 1 -331 16 -24 32 -29 321
-31 1631 -1 1070 1 1301 12 1312 10 11 225 14 1195 14 651 1 1437 6 1748 12
350 7 1857 12 3967 14 1872 1 3406 5 3410 9 12 12 131 2 145 -12z m-1028
-3019 c20 -6 33 -19 40 -39 6 -18 10 -353 10 -909 0 -1089 -6 -1183 -80 -1232
-27 -17 -69 -18 -829 -17 -440 0 -1184 6 -1653 12 -1105 15 -2541 16 -3547 1
-559 -9 -1050 -10 -1628 -3 l-829 9 -23 27 c-18 20 -25 46 -32 105 -4 43 -8
506 -8 1030 0 761 3 955 13 965 25 25 754 36 3007 43 1227 4 2610 11 3075 15
1025 9 2444 5 2484 -7z m366 -21 c14 -17 18 -56 23 -249 7 -272 2 -1105 -7
-1288 -4 -71 -11 -281 -16 -465 -9 -355 -19 -433 -61 -475 -19 -19 -35 -20
-607 -23 -596 -4 -1829 9 -2982 30 -390 8 -1589 12 -3101 13 -2368 0 -2468 1
-2487 18 -39 35 -47 125 -46 507 1 610 13 1891 18 1899 8 12 137 22 189 15 35
-5 47 -12 56 -31 8 -17 14 -338 21 -1036 6 -557 15 -1034 19 -1061 9 -52 30
-76 65 -76 12 0 289 -3 616 -7 914 -10 1333 -9 2115 6 719 14 1304 13 4905
-16 691 -6 921 2 966 31 17 12 23 28 28 73 13 129 27 766 31 1413 2 377 7 695
10 708 5 13 18 25 34 28 14 3 31 8 36 10 6 2 43 2 84 0 61 -3 78 -7 91 -24z
m-8675 -2528 c15 -6 17 -17 12 -88 -6 -88 -69 -503 -92 -604 -27 -117 -67
-172 -125 -172 -45 0 -74 28 -95 91 -22 68 -88 542 -89 645 -1 140 8 145 250
138 66 -2 129 -6 139 -10z m612 -23 c-12 -94 -48 -119 -169 -120 -97 -1 -111
7 -138 79 -19 52 -21 63 -9 71 8 5 83 9 168 9 l154 0 -6 -39z m7081 3 c26 -7
27 -14 7 -82 -20 -66 -39 -76 -141 -77 -94 0 -114 11 -132 74 -15 50 -15 78 1
84 17 8 238 8 265 1z m668 -18 c32 -44 15 -230 -52 -569 -41 -206 -69 -307
-92 -324 -9 -7 -44 -13 -79 -13 -60 0 -64 2 -82 31 -35 58 -76 304 -102 612
-13 153 -7 214 22 251 26 32 37 34 217 32 140 -1 155 -3 168 -20z"/>
<path d="M9657 12333 c-4 -4 -895 -8 -1980 -9 -2862 -4 -5842 -20 -6026 -33
-177 -13 -204 -23 -237 -88 -20 -39 -21 -62 -27 -410 -4 -202 -11 -433 -16
-513 -32 -483 -39 -1888 -10 -2003 8 -32 18 -48 36 -56 20 -9 144 -9 517 0
317 7 779 9 1301 5 1195 -10 3447 -7 3860 4 198 6 671 13 1050 16 669 6 762 5
1630 -27 159 -6 308 -8 332 -4 70 10 78 32 76 200 -7 446 -3 1279 9 1800 7
330 13 690 13 800 0 183 -2 203 -20 235 -30 51 -73 67 -210 79 -137 12 -288
14 -298 4z m396 -76 c27 -12 42 -27 53 -54 23 -53 29 -227 15 -443 -7 -117
-12 -591 -12 -1295 -1 -1179 -1 -1159 -48 -1184 -15 -8 -180 -8 -608 0 -410 8
-1005 9 -1968 3 -2122 -12 -6045 -11 -6056 2 -25 31 -31 197 -32 904 -1 601 2
790 17 1035 9 165 21 437 25 605 8 337 11 354 72 386 17 9 73 21 123 26 61 7
837 12 2341 14 1238 2 2628 7 3090 11 462 5 1315 8 1895 8 959 -1 1058 -3
1093 -18z"/>
<path d="M5690 10981 c-138 -45 -217 -184 -180 -315 15 -56 69 -120 124 -148
48 -26 157 -30 220 -9 51 17 115 76 137 126 52 113 -6 266 -123 326 -42 22
-140 33 -178 20z"/>
<path d="M5655 6366 c-66 -21 -101 -43 -143 -91 -84 -96 -79 -222 14 -325 54
-59 106 -83 179 -83 81 1 136 17 187 56 92 70 123 197 74 302 -59 127 -181
182 -311 141z"/>
<path d="M5642 4136 c-59 -19 -107 -58 -139 -114 -25 -41 -28 -57 -28 -133 0
-76 3 -90 28 -127 15 -23 46 -54 69 -69 35 -24 54 -29 124 -31 72 -4 89 -1
144 24 100 45 160 130 160 226 0 87 -57 173 -138 210 -56 25 -164 32 -220 14z"/>
</g>
</svg>
